<svg xmlns="http://www.w3.org/2000/svg" viewBox="0 0 300 150"><defs><style>.cls-1{fill:none;stroke:#ae8186;stroke-linecap:round;stroke-linejoin:round;stroke-width:4px;}.cls-2{fill:#ae8186;}.cls-3{fill:#fff;}.cls-4{fill:#ffe6c8;}</style></defs><g id="Completed"><g id="Symbols_copy_3" data-name="Symbols copy 3"><line class="cls-1" x1="148" y1="47.19" x2="148" y2="16.33"/><polygon class="cls-2" points="164.36 29.58 161.43 32.31 148 17.86 134.57 32.31 131.65 29.58 148 11.99 164.36 29.58"/><circle class="cls-3" cx="148" cy="96.03" r="40.48"/><path class="cls-4" d="M113.87,117.8a40.48,40.48,0,0,0,70.69-39.16S164.75,117,120.08,117Z"/><path class="cls-2" d="M148,58.55A37.48,37.48,0,1,1,110.52,96,37.52,37.52,0,0,1,148,58.55m0-3A40.48,40.48,0,1,0,188.48,96,40.48,40.48,0,0,0,148,55.55Z"/><ellipse class="cls-4" cx="141.72" cy="64.99" rx="6.28" ry="3.49" transform="translate(-11.39 35.58) rotate(-13.76)"/><line class="cls-1" x1="104" y1="64.79" x2="104" y2="33.93"/><polygon class="cls-2" points="120.36 47.18 117.43 49.91 104 35.46 90.57 49.91 87.64 47.18 104 29.59 120.36 47.18"/><line class="cls-1" x1="192" y1="64.79" x2="192" y2="33.93"/><polygon class="cls-2" points="208.36 47.18 205.43 49.91 192 35.46 178.57 49.91 175.65 47.18 192 29.59 208.36 47.18"/></g></g></svg>