<?xml version="1.0" encoding="utf-8"?>
<!-- Generator: Adobe Illustrator 25.2.3, SVG Export Plug-In . SVG Version: 6.00 Build 0)  -->
<svg version="1.1" id="Allocate" xmlns="http://www.w3.org/2000/svg" xmlns:xlink="http://www.w3.org/1999/xlink" x="0px" y="0px"
	 viewBox="0 0 300 150" style="enable-background:new 0 0 300 150;" xml:space="preserve">
<style type="text/css">
	.st0{fill:#FFFFFF;}
	.st1{fill:#B1CCE0;}
	.st2{fill:none;stroke:#D0E5F8;stroke-linecap:round;stroke-linejoin:round;}
	.st3{fill:none;stroke:#FFFFFF;stroke-linecap:round;stroke-linejoin:round;}
	.st4{fill:none;stroke:#FFFFFF;stroke-width:2;stroke-linecap:round;stroke-linejoin:round;}
	.st5{fill:none;stroke:#AE8186;stroke-width:2;stroke-linecap:round;stroke-linejoin:round;}
	.st6{fill:#AE8186;}
	.st7{fill:#FFE6C8;}
	.st8{fill:none;stroke:#AE8186;stroke-width:1.5;stroke-linecap:round;stroke-linejoin:round;}
	.st9{fill:#F3E586;}
	.st10{fill:none;stroke:#AE8186;stroke-width:1.5;stroke-miterlimit:10;}
	.st11{fill:#FFFFFF;stroke:#D6E9F8;stroke-miterlimit:10;}
</style>
<g id="Backgrounders">
	<rect x="-14" y="-9" class="st0" width="318.5" height="164"/>
	<path d="M304-8.5v163H-13.5v-163H304 M305-9.5H-14.5v165H305V-9.5z"/>
	<rect x="-14.5" y="-9.5" class="st1" width="122" height="165"/>
</g>
<g id="Accent_Lines">
	<line class="st2" x1="152.9" y1="121.8" x2="185.5" y2="121.8"/>
	<line class="st2" x1="141.5" y1="121.8" x2="149.9" y2="121.8"/>
	<line class="st2" x1="232.9" y1="142.8" x2="265.5" y2="142.8"/>
	<line class="st2" x1="221.5" y1="142.8" x2="229.9" y2="142.8"/>
	<line class="st2" x1="121.5" y1="21.8" x2="129.9" y2="21.8"/>
	<line class="st2" x1="182.9" y1="87.8" x2="215.5" y2="87.8"/>
	<line class="st2" x1="171.5" y1="87.8" x2="179.9" y2="87.8"/>
	<line class="st2" x1="132.9" y1="21.8" x2="165.5" y2="21.8"/>
	<line class="st2" x1="192.9" y1="95.8" x2="225.5" y2="95.8"/>
	<line class="st2" x1="112.8" y1="27.8" x2="145.5" y2="27.8"/>
	<line class="st2" x1="131.5" y1="129.8" x2="159.9" y2="129.8"/>
	<line class="st3" x1="16.9" y1="91.8" x2="49.5" y2="91.8"/>
	<line class="st3" x1="5.5" y1="91.8" x2="13.9" y2="91.8"/>
	<line class="st3" x1="-4.5" y1="99.8" x2="23.9" y2="99.8"/>
	<line class="st3" x1="94.2" y1="15.8" x2="61.5" y2="15.8"/>
	<line class="st3" x1="115.5" y1="7.8" x2="87.2" y2="7.8"/>
	<line class="st3" x1="52.8" y1="121.8" x2="85.5" y2="121.8"/>
	<line class="st3" x1="31.5" y1="129.8" x2="59.8" y2="129.8"/>
	<line class="st3" x1="-13.1" y1="51.8" x2="19.5" y2="51.8"/>
	<line class="st2" x1="229.1" y1="51.8" x2="196.5" y2="51.8"/>
	<line class="st2" x1="205.5" y1="46.8" x2="177.1" y2="46.8"/>
	<line class="st3" x1="46.8" y1="41.8" x2="79.5" y2="41.8"/>
</g>
<g id="Symbols">
	<line class="st4" x1="20.5" y1="73.5" x2="58.3" y2="73.5"/>
	<polygon class="st0" points="51.7,81.7 50.3,80.2 57.6,73.5 50.3,66.8 51.7,65.3 60.5,73.5 	"/>
	<line class="st5" x1="153.2" y1="73.5" x2="211" y2="73.5"/>
	<polygon class="st6" points="204.4,81.7 203,80.3 210.3,73.5 203,66.8 204.4,65.3 213.2,73.5 	"/>
	<path class="st5" d="M153.2,56.1c0,0,7.3-28.8,57.8-29.6"/>
	<polygon class="st6" points="204.7,34.9 203.3,33.5 210.3,26.5 202.8,20.1 204.1,18.6 213.2,26.4 	"/>
	<path class="st5" d="M153.2,91c0,0,7.3,28.8,57.8,29.6"/>
	<polygon class="st6" points="204.1,128.5 202.8,127 210.3,120.5 203.3,113.6 204.7,112.1 213.2,120.6 	"/>
	<circle class="st0" cx="108" cy="74" r="29"/>
	<path class="st7" d="M83.6,89.6c8.6,13.5,26.5,17.6,40,9c12.4-7.9,17-23.8,10.6-37.1c0,0-14.2,27.5-46.2,27.5L83.6,89.6z"/>
	<path class="st6" d="M108,46.5c15.2,0,27.5,12.3,27.5,27.5s-12.3,27.5-27.5,27.5S80.5,89.2,80.5,74C80.5,58.8,92.8,46.5,108,46.5
		 M108,45c-16,0-29,13-29,29s13,29,29,29s29-13,29-29S124,45,108,45z"/>
	<ellipse transform="matrix(0.9713 -0.2379 0.2379 0.9713 -9.0419 26.0677)" class="st7" cx="103.5" cy="50.5" rx="4.5" ry="2.5"/>
	<path class="st8" d="M249.9,118.8L249.9,118.8c7.5,0,13.6,6.1,13.6,13.6l0,0l0,0c0,0.8-0.6,1.4-1.4,1.4h-24.5
		c-0.8,0-1.4-0.6-1.4-1.4l0,0l0,0C236.3,124.8,242.4,118.7,249.9,118.8z"/>
	<circle class="st8" cx="249.9" cy="109.3" r="6.2"/>
	<path class="st8" d="M259.5,111.7c-0.4,1.1-1,2.2-1.9,3"/>
	<path class="st8" d="M252.1,100.3c4.3,0,7.8,3.5,7.8,7.8c0,0,0,0,0,0"/>
	<path class="st8" d="M255.5,26.8L255.5,26.8c7.5,0,13.6,6.1,13.6,13.6c0,0,0,0,0,0l0,0c0,0.8-0.6,1.4-1.4,1.4h-24.5
		c-0.8,0-1.4-0.6-1.4-1.4l0,0l0,0C241.9,32.8,248,26.8,255.5,26.8L255.5,26.8z"/>
	<circle class="st8" cx="255.5" cy="17.3" r="6.2"/>
	<path class="st8" d="M238.8,36.6h-8.1c-0.5,0-0.9-0.4-0.9-0.9v0l0,0c0-5.1,4.1-9.2,9.2-9.2c0,0,0,0,0,0l0,0c1.6,0,3.1,0.4,4.5,1.2"
		/>
	<circle class="st8" cx="239" cy="20.1" r="4.2"/>
	<path class="st8" d="M265,19.8c-0.4,1.1-1,2.2-1.9,3"/>
	<path class="st8" d="M257.6,8.4c4.3,0,7.8,3.5,7.8,7.9"/>
	<polygon class="st7" points="232.2,61.2 252.7,51 273.2,61.2 273.2,64.6 232.2,64.6 	"/>
	<rect x="235.7" y="64.6" class="st9" width="34" height="2.6"/>
	<polygon class="st0" points="238.8,61 252.7,54.2 266.6,61 	"/>
	<polygon class="st8" points="232.2,61.2 252.7,51 273.2,61.2 273.2,64.3 232.2,64.3 	"/>
	<polygon class="st10" points="252.7,54.2 238.4,61.2 267,61.2 	"/>
	<rect x="235.7" y="84.5" class="st8" width="34" height="3.1"/>
	<path class="st8" d="M235.3,87.6H270c1.7,0,3.1,1.4,3.1,3.1c0,0,0,0,0,0l0,0l0,0h-41l0,0l0,0C232.1,89,233.5,87.6,235.3,87.6
		C235.3,87.6,235.3,87.6,235.3,87.6z"/>
	<rect x="235.7" y="64.3" class="st8" width="34" height="3.1"/>
	<rect x="237" y="67.5" class="st8" width="2.9" height="17"/>
	<rect x="246.5" y="67.5" class="st8" width="2.9" height="17"/>
	<rect x="256" y="67.5" class="st8" width="2.9" height="17"/>
	<rect x="265.5" y="67.5" class="st8" width="2.9" height="17"/>
	<line class="st8" x1="254.5" y1="45.5" x2="268.5" y2="45.5"/>
	<line class="st8" x1="248.5" y1="45.5" x2="251.5" y2="45.5"/>
	<line class="st8" x1="249" y1="138.1" x2="263" y2="138.1"/>
	<line class="st8" x1="243" y1="138.1" x2="246" y2="138.1"/>
	<path class="st11" d="M20.3,14.5h35.3c4.9,0,8.8,4,8.8,8.8v2.3c0,4.9-4,8.8-8.8,8.8H20.3c-4.9,0-8.8-4-8.8-8.8v-2.3
		C11.5,18.5,15.5,14.5,20.3,14.5z"/>
	<path class="st11" d="M69.3,114.5h35.3c4.9,0,8.8,4,8.8,8.8v2.3c0,4.9-4,8.8-8.8,8.8H69.3c-4.9,0-8.8-4-8.8-8.8v-2.3
		C60.5,118.5,64.5,114.5,69.3,114.5z"/>
	<path class="st11" d="M106.3-5.5h35.3c4.9,0,8.8,4,8.8,8.8v2.3c0,4.9-4,8.8-8.8,8.8h-35.3c-4.9,0-8.8-4-8.8-8.8V3.3
		C97.5-1.5,101.5-5.5,106.3-5.5z"/>
</g>
</svg>
