<svg xmlns="http://www.w3.org/2000/svg" viewBox="0 0 300 150"><defs><style>.cls-1{fill:#fff;}.cls-2{fill:#ffe6c8;}.cls-3{fill:#b1cce0;}.cls-4{fill:#ae8186;}</style></defs><g id="Completed"><g id="Symbols_copy_3" data-name="Symbols copy 3"><path class="cls-1" d="M147.17,105.17l2.77-2.77a1.2,1.2,0,0,1,.94-.34,14.62,14.62,0,0,0,10.5-3.92l12.75-12.75,0,0s0-.1.09-.14a4,4,0,0,0,0-5.72,4.15,4.15,0,0,0-5.71,0h0a1.18,1.18,0,0,1-1.68,0,1.2,1.2,0,0,1,0-1.68h0l2.68-2.68a4,4,0,0,0,0-5.72,4.14,4.14,0,0,0-5.72,0,1.18,1.18,0,0,1-.84.35c-.05,0-.1,0-.16,0a1.17,1.17,0,0,1-.68-2,4,4,0,0,0,0-5.72,4.14,4.14,0,0,0-5.72,0,1.4,1.4,0,0,1-.39.26,1.22,1.22,0,0,1-.38.07h-.07a1.19,1.19,0,0,1-.84-2,4.06,4.06,0,0,0,0-5.72,4.15,4.15,0,0,0-5.72,0l-10,10s-.08,0-.12.08a1,1,0,0,1-.44.21l-.13,0h-.07l-.08,0a1,1,0,0,1-.17,0,.78.78,0,0,1-.21,0,.75.75,0,0,1-.2-.1l-.19-.13-.07,0a1.1,1.1,0,0,1-.09-.14,1.88,1.88,0,0,1-.12-.18,1,1,0,0,1-.08-.25s0-.08-.05-.13a13.88,13.88,0,0,0-3.64-7.29l-2.54-2.53a4.13,4.13,0,0,0-5.72,0,4,4,0,0,0,0,5.72c9.69,9.69,2.32,18.19,2.25,18.27l-.75.75,15.06,15.06A19.16,19.16,0,0,1,147.17,105.17Z"/><path class="cls-1" d="M142,33a46,46,0,0,0-40.58,67.67L124.11,78l1.54-1.54c.2-.23,5.87-6.88-2.2-15a6.42,6.42,0,0,1,0-9.08,6.42,6.42,0,0,1,9.08,0h0l2.54,2.54a15.82,15.82,0,0,1,3.81,6.47L147.33,53a6.41,6.41,0,0,1,10.85,5.63,6.6,6.6,0,0,1,1.09-.11,6.38,6.38,0,0,1,4.54,1.88A6.44,6.44,0,0,1,165.59,66a6.41,6.41,0,0,1,6.34,10,6.43,6.43,0,0,1,4,10.95s-.09.05-.14.09l0,0L163.06,99.82a16.73,16.73,0,0,1-11.81,4.63l-4,4a19.26,19.26,0,0,1-5.6,12.79l-3.63,3.62c1.3.11,2.61.18,3.94.18a46,46,0,0,0,0-92Z"/><path class="cls-2" d="M102.64,102.82A46,46,0,0,0,135,124.48l3.52-3.53-27-27Z"/><path class="cls-3" d="M140,95.56l-15-15L113.22,92.24l27,27A17,17,0,0,0,140,95.56Zm-.4,14.26a1.18,1.18,0,0,1-.84.35,1.2,1.2,0,0,1-.84-.35l-.67-.67a1.19,1.19,0,0,1,0-1.68,1.2,1.2,0,0,1,1.69,0l.67.68A1.18,1.18,0,0,1,139.6,109.82Z"/><path class="cls-4" d="M147.29,108.41l-.3.3a1.14,1.14,0,0,1-.84.35h0v2l-5.26,9.19a1,1,0,0,1,0,.17,1.16,1.16,0,0,1-.35.84,1.18,1.18,0,0,1-.84.35,1.2,1.2,0,0,1-.84-.35h0l-3.29,3.27q1.22.17,2.46.27l3.63-3.62A19.26,19.26,0,0,0,147.29,108.41Z"/><path class="cls-4" d="M140.84,94.72l4,6,1,5.71,1.28-1.28a19.16,19.16,0,0,0-5.48-11.29L126.63,78.82l-.44.45,1.32,2.12Z"/><path class="cls-4" d="M111.44,93.82a1.21,1.21,0,0,1-.33-.81,1.18,1.18,0,0,1,.35-.84,1.07,1.07,0,0,1,.44-.27l13-11.89a1.19,1.19,0,0,1-.81-2l-22.69,22.69c.31.57.63,1.13,1,1.69Z"/><path class="cls-4" d="M111.53,93.92l-.07-.07,0,0-9.06,8.54.26.46Z"/><path class="cls-4" d="M135,124.48l.56.07,3.29-3.27-.33-.33Z"/><path class="cls-4" d="M145.31,107l.58-.58-1-5.71-4-6L127.51,81.39l-1.32-2.12-.4.4A1.19,1.19,0,0,1,125,80h0l-13,11.89a1.17,1.17,0,0,1,1.24.27l.08.07L125,80.51l15,15a17,17,0,0,1,.23,23.7l.34.34a1.14,1.14,0,0,1,.32.67l5.26-9.19v-2a1.14,1.14,0,0,1-.84-.35A1.18,1.18,0,0,1,145.31,107Z"/><polygon class="cls-4" points="112.38 93.08 139.41 120.11 139.99 119.53 112.48 92.97 112.38 93.08"/><rect class="cls-4" x="124.87" y="87.9" width="1.19" height="38.23" transform="translate(-38.92 120.07) rotate(-45)"/><path class="cls-4" d="M140,119.53v0c.09-.08.15-.17.23-.25l-27-27-.74.74Z"/><path class="cls-4" d="M140,119.53l-.58.58.32.33-.84.84h0a1.2,1.2,0,0,0,.84.35,1.18,1.18,0,0,0,.84-.35,1.16,1.16,0,0,0,.35-.84,1,1,0,0,0,0-.17l0,.09Zm.87.83h0Z"/><path class="cls-4" d="M112.37,93.08l.11-.1-.86-.83.28-.25a1.07,1.07,0,0,0-.44.27,1.18,1.18,0,0,0-.35.84,1.21,1.21,0,0,0,.33.81l.86-.81Z"/><path class="cls-4" d="M111.53,93.92l.84-.84L112.3,93l-.86.81,0,0Z"/><rect class="cls-4" x="138.55" y="120.46" width="1.19" height="0.46" transform="translate(-44.59 133.72) rotate(-44.99)"/><path class="cls-4" d="M112.48,93l.74-.74-.08-.07a1.17,1.17,0,0,0-1.24-.27l-.28.25Z"/><path class="cls-4" d="M140.23,119.26c-.08.08-.14.17-.23.25v0l.85.83,0-.09a1.14,1.14,0,0,0-.32-.67Z"/><path class="cls-4" d="M138.93,107.46a1.2,1.2,0,0,0-1.69,0,1.19,1.19,0,0,0,0,1.68l.67.67a1.2,1.2,0,0,0,.84.35,1.19,1.19,0,0,0,.84-2Z"/><path class="cls-4" d="M174.24,87a1.19,1.19,0,0,1-.09-1.55l0,0L161.38,98.14a14.62,14.62,0,0,1-10.5,3.92,1.2,1.2,0,0,0-.94.34l-2.77,2.77a19.51,19.51,0,0,1,.12,3.24l4-4a16.73,16.73,0,0,0,11.81-4.63l12.75-12.75,0,0a1.15,1.15,0,0,1-.7.25A1.21,1.21,0,0,1,174.24,87Z"/><path class="cls-4" d="M147.17,105.17l-1.28,1.28.26,1.42v1.19h0a1.14,1.14,0,0,0,.84-.35l.3-.3A19.51,19.51,0,0,0,147.17,105.17Z"/><path class="cls-4" d="M145.89,106.45l-.58.58a1.18,1.18,0,0,0,0,1.68,1.14,1.14,0,0,0,.84.35v-1.19Z"/><path class="cls-4" d="M162.13,69.46a1.2,1.2,0,0,0,.68.32A1.2,1.2,0,0,1,162.13,69.46Z"/><path class="cls-4" d="M169.53,69.46a4,4,0,0,1,0,5.72l-2.68,2.68h0a1.2,1.2,0,0,0,0,1.68,1.18,1.18,0,0,0,1.68,0h0a4.15,4.15,0,0,1,5.71,0,4,4,0,0,1,0,5.72s-.05.1-.09.14l1.64,1.64c.05,0,.1,0,.14-.09a6.43,6.43,0,0,0-4-10.95,6.37,6.37,0,0,0-6.34-10,6.39,6.39,0,0,1-1.78,3.46A4.14,4.14,0,0,1,169.53,69.46Z"/><path class="cls-4" d="M174.24,87a1.21,1.21,0,0,0,.85.34,1.15,1.15,0,0,0,.7-.25l-1.64-1.64A1.19,1.19,0,0,0,174.24,87Z"/><path class="cls-4" d="M156,62.32a1.4,1.4,0,0,0,.39-.26A1.4,1.4,0,0,1,156,62.32Z"/><path class="cls-4" d="M155.64,62.39h0Z"/><path class="cls-4" d="M163.81,69.46a1.2,1.2,0,0,1-1,.32c.06,0,.11,0,.16,0A1.18,1.18,0,0,0,163.81,69.46Z"/><path class="cls-4" d="M162.13,62.06a4,4,0,0,1,0,5.72A6.32,6.32,0,0,1,165.59,66a6.44,6.44,0,0,0-1.78-5.63,6.38,6.38,0,0,0-4.54-1.88,6.6,6.6,0,0,0-1.09.11,6.34,6.34,0,0,1-1.77,3.46A4.14,4.14,0,0,1,162.13,62.06Z"/><path class="cls-4" d="M162.13,69.46a1.23,1.23,0,0,0,1.68,0A6.39,6.39,0,0,0,165.59,66a6.32,6.32,0,0,0-3.46,1.78A1.2,1.2,0,0,0,162.13,69.46Z"/><path class="cls-4" d="M137.63,64.78l-.19-.13Z"/><path class="cls-4" d="M138.49,64.9a.71.71,0,0,1-.2,0h.07Z"/><path class="cls-4" d="M137.83,64.88a.78.78,0,0,0,.21,0Z"/><path class="cls-4" d="M137.16,64.29a1.88,1.88,0,0,0,.12.18A1.88,1.88,0,0,1,137.16,64.29Z"/><path class="cls-4" d="M125.79,78l.84.84.75-.75c.07-.08,7.44-8.58-2.25-18.27a4,4,0,0,1,0-5.72,4.13,4.13,0,0,1,5.72,0l2.54,2.53A13.88,13.88,0,0,1,137,63.91c0,.05,0,.09.05.13a1.17,1.17,0,0,1,.29-1.12l1.51-1.51a15.82,15.82,0,0,0-3.81-6.47l-2.54-2.54h0a6.42,6.42,0,0,0-9.08,0,6.42,6.42,0,0,0,0,9.08c8.07,8.08,2.4,14.73,2.2,15L124.11,78A1.2,1.2,0,0,1,125.79,78Z"/><path class="cls-4" d="M138.73,64.82a1.13,1.13,0,0,0,.2-.13A1.13,1.13,0,0,1,138.73,64.82Z"/><path class="cls-4" d="M124.11,79.67a1.19,1.19,0,0,0,.81.34l1.1-1,.17.27.44-.45-.84-.84a1.19,1.19,0,0,0-1.68,1.69Z"/><path class="cls-4" d="M125.79,79.67l.4-.4L126,79l-1.1,1h0A1.19,1.19,0,0,0,125.79,79.67Z"/><path class="cls-4" d="M155.64,62.39a1.22,1.22,0,0,0,.38-.07A1.22,1.22,0,0,1,155.64,62.39Z"/><path class="cls-4" d="M155.57,62.4a1.19,1.19,0,0,1-.84-.34,1.19,1.19,0,0,0,.84.34Z"/><path class="cls-4" d="M149,53a1.2,1.2,0,0,1,0,1.68,4.15,4.15,0,0,1,5.72,0,4.06,4.06,0,0,1,0,5.72,6.34,6.34,0,0,1,3.45-1.77A6.41,6.41,0,0,0,147.33,53,1.2,1.2,0,0,1,149,53Z"/><path class="cls-4" d="M154.73,62.06a1.19,1.19,0,0,0,.84.34h.07a1.22,1.22,0,0,0,.38-.07,1.4,1.4,0,0,0,.39-.26,6.34,6.34,0,0,0,1.77-3.46,6.34,6.34,0,0,0-3.45,1.77A1.19,1.19,0,0,0,154.73,62.06Z"/><path class="cls-4" d="M137.63,64.78a.75.75,0,0,0,.2.1A.75.75,0,0,1,137.63,64.78Z"/><path class="cls-4" d="M138.49,64.9a1.13,1.13,0,0,0,.24-.08A1.13,1.13,0,0,1,138.49,64.9Z"/><path class="cls-4" d="M137.08,64a1,1,0,0,0,.08.25A1,1,0,0,1,137.08,64Z"/><path class="cls-4" d="M138.93,64.69s.09,0,.12-.08l10-10A1.19,1.19,0,0,1,147.33,53l-8.45,8.44a13.39,13.39,0,0,1,.51,2.22A1.13,1.13,0,0,1,138.93,64.69Z"/><path class="cls-4" d="M137.44,64.65a1.37,1.37,0,0,1-.16-.18,1.1,1.1,0,0,0,.09.14Z"/><path class="cls-4" d="M138.29,64.94a1,1,0,0,1-.25,0,1,1,0,0,0,.17,0Z"/><path class="cls-4" d="M137.08,64a1,1,0,0,0,.08.25,1.88,1.88,0,0,0,.12.18,1.37,1.37,0,0,0,.16.18l.19.13a.75.75,0,0,0,.2.1l.21,0a1,1,0,0,0,.25,0,.71.71,0,0,0,.2,0,1.19,1.19,0,0,0,.9-1.27,13.39,13.39,0,0,0-.51-2.22l-1.51,1.51A1.17,1.17,0,0,0,137.08,64Z"/><path class="cls-4" d="M147.33,54.65a1.18,1.18,0,0,0,1.68,0A1.19,1.19,0,1,0,147.33,53,1.18,1.18,0,0,0,147.33,54.65Z"/><path class="cls-4" d="M142,36A43,43,0,1,1,99,79a43,43,0,0,1,43-43m0-3a46,46,0,1,0,46,46,46,46,0,0,0-46-46Z"/></g></g></svg>