<?xml version="1.0" encoding="utf-8"?>
<!-- Generator: Adobe Illustrator 25.2.3, SVG Export Plug-In . SVG Version: 6.00 Build 0)  -->
<svg version="1.1" id="Layer_1" xmlns="http://www.w3.org/2000/svg" xmlns:xlink="http://www.w3.org/1999/xlink" x="0px" y="0px"
	 viewBox="0 0 300 150" style="enable-background:new 0 0 300 150;" xml:space="preserve">
<style type="text/css">
	.st0{fill:#FFFFFF;}
	.st1{fill:#B1CCE0;}
	.st2{fill:#F1FAFF;}
	.st3{fill:none;stroke:#B1CCE0;stroke-width:1.5;stroke-linecap:round;stroke-miterlimit:10;}
	.st4{fill:none;stroke:#FFFFFF;stroke-width:1.5;stroke-linecap:round;stroke-miterlimit:10;}
	.st5{fill:#FFFFFF;stroke:#D6E9F8;stroke-miterlimit:10;}
	.st6{fill:#FFE6C8;}
	.st7{fill:#AE8186;}
	.st8{fill:none;stroke:#FFFFFF;stroke-width:1.5;stroke-linecap:round;stroke-linejoin:round;}
	.st9{fill:none;stroke:#AE8186;stroke-width:1.5;stroke-linecap:round;stroke-linejoin:round;}
</style>
<g id="Approve">
	<g id="Backgrounders_copy">
		<rect x="-14" y="-9" class="st0" width="332.5" height="164"/>
		<path d="M318-8.5v163H-13.5v-163H318 M319-9.5H-14.5v165H319V-9.5z"/>
		<rect x="-14.5" y="-9.5" class="st1" width="122" height="165"/>
		<polygon class="st2" points="166,75.1 107.5,0.2 107.5,150 		"/>
		<polygon class="st2" points="233,75.1 291.5,150 291.5,0.2 		"/>
		<rect x="291" y="-4" class="st2" width="24" height="158"/>
	</g>
	<g id="Accent_Lines_copy">
		<line class="st3" x1="200.1" y1="19.8" x2="167.5" y2="19.8"/>
		<line class="st3" x1="211.5" y1="19.8" x2="203.1" y2="19.8"/>
		<line class="st3" x1="231.5" y1="139.8" x2="223.1" y2="139.8"/>
		<line class="st3" x1="170.1" y1="53.8" x2="137.5" y2="53.8"/>
		<line class="st3" x1="181.5" y1="53.8" x2="173.1" y2="53.8"/>
		<line class="st3" x1="220.1" y1="139.8" x2="187.5" y2="139.8"/>
		<line class="st3" x1="160.1" y1="45.8" x2="127.5" y2="45.8"/>
		<line class="st3" x1="240.1" y1="133.8" x2="207.5" y2="133.8"/>
		<line class="st3" x1="221.5" y1="11.8" x2="193.1" y2="11.8"/>
		<line class="st3" x1="133.9" y1="109.8" x2="166.5" y2="109.8"/>
		<line class="st3" x1="157.5" y1="114.8" x2="185.9" y2="114.8"/>
		<line class="st4" x1="27.9" y1="126.8" x2="60.5" y2="126.8"/>
		<line class="st4" x1="16.5" y1="126.8" x2="24.9" y2="126.8"/>
		<line class="st4" x1="-3.5" y1="6.8" x2="4.8" y2="6.8"/>
		<line class="st4" x1="7.8" y1="6.8" x2="40.5" y2="6.8"/>
		<line class="st4" x1="-12.1" y1="12.8" x2="20.5" y2="12.8"/>
		<line class="st4" x1="6.5" y1="134.8" x2="34.8" y2="134.8"/>
		<line class="st4" x1="98.2" y1="30.8" x2="65.5" y2="30.8"/>
		<line class="st4" x1="83.4" y1="36.6" x2="55.1" y2="36.6"/>
		<line class="st4" x1="56.5" y1="143.8" x2="64.8" y2="143.8"/>
		<line class="st4" x1="67.8" y1="143.8" x2="100.5" y2="143.8"/>
		<path class="st5" d="M249.9,8.3h35.3c4.9,0,8.8,4,8.8,8.8v2.3c0,4.9-4,8.8-8.8,8.8h-35.3c-4.9,0-8.8-4-8.8-8.8v-2.3
			C241,12.3,245,8.3,249.9,8.3z"/>
		<path class="st5" d="M87.9,117.3h35.3c4.9,0,8.8,4,8.8,8.8v2.3c0,4.9-4,8.8-8.8,8.8H87.9c-4.9,0-8.8-4-8.8-8.8v-2.3
			C79,121.3,83,117.3,87.9,117.3z"/>
		<path class="st5" d="M55.5,6h35.3c4.9,0,8.8,4,8.8,8.8v2.3c0,4.9-4,8.8-8.8,8.8H55.5c-4.9,0-8.8-4-8.8-8.8v-2.3
			C46.7,10,50.6,6,55.5,6z"/>
	</g>
	<g id="Symbols_copy">
		<path class="st0" d="M111.3,90.5l1.7-1.8c0.2-0.2,0.4-0.2,0.6-0.2c2.4,0.1,4.8-0.8,6.6-2.5l8-8l0,0c0,0,0-0.1,0.1-0.1
			c1-1,1-2.6,0-3.6c-1-1-2.6-1-3.6,0l0,0c-0.3,0.3-0.8,0.3-1.1,0c-0.3-0.3-0.3-0.7,0-1l0,0l1.7-1.7c0.5-0.5,0.7-1.1,0.7-1.8
			c0-0.7-0.3-1.3-0.7-1.8c-1-1-2.6-1-3.6,0c-0.1,0.1-0.3,0.2-0.5,0.2h-0.1c-0.2,0-0.3-0.1-0.4-0.2c-0.3-0.3-0.3-0.8,0-1.1
			c1-1,1-2.6,0-3.6c-1-1-2.6-1-3.6,0c-0.1,0.1-0.1,0.1-0.2,0.2c-0.1,0-0.2,0-0.2,0l0,0c-0.2,0-0.4-0.1-0.5-0.2
			c-0.3-0.3-0.3-0.8,0-1.1c1-1,1-2.6,0-3.6c0,0,0,0,0,0c-1-1-2.6-1-3.6,0l-6.3,6.3h-0.1l-0.1,0.1c-0.1,0-0.1,0-0.2,0
			c0,0-0.1,0-0.1,0h-0.1h-0.1h-0.1l-0.1-0.1c0,0-0.1,0-0.1-0.1l0,0c0,0,0-0.1-0.1-0.1l-0.1-0.1c0-0.1,0-0.1,0-0.2c0,0,0,0,0-0.1
			c-0.3-1.7-1.1-3.3-2.3-4.6l-1.6-1.6c-1-1-2.6-1-3.6,0c-1,1-1,2.6,0,3.6c6.1,6.1,1.5,11.5,1.4,11.5l-0.5,0.5l9.5,9.5
			C109.8,85.3,111,87.8,111.3,90.5z"/>
		<path class="st0" d="M108,45c-16,0-29,13-29,29c0,4.8,1.2,9.5,3.4,13.7l14.3-14.3l1-1c0.1-0.2,3.7-4.3-1.4-9.4
			c-1.6-1.6-1.6-4.1,0-5.7c1.5-1.6,4.1-1.6,5.7-0.1c0,0,0,0,0.1,0.1l0,0l1.6,1.6c1.1,1.1,1.9,2.5,2.4,4.1l5.3-5.3
			c1.5-1.6,4-1.7,5.7-0.2c1,1,1.5,2.4,1.2,3.7c0.2,0,0.5-0.1,0.7-0.1c2.2,0,4,1.7,4.1,3.9c0,0.3,0,0.5-0.1,0.8
			c0.2,0,0.5-0.1,0.7-0.1c2.2,0,4.1,1.8,4,4.1c0,0.8-0.3,1.6-0.7,2.3c1,0.1,1.8,0.5,2.5,1.2c1.6,1.6,1.6,4.1,0,5.7h-0.1l0,0l-8,8
			c-2,1.9-4.7,3-7.4,2.9l-2.5,2.5c-0.1,3-1.4,5.9-3.5,8.1l-2.3,2.3c0.8,0.1,1.6,0.1,2.5,0.1c16,0,29-13,29-29s-13-29-29-29l0,0
			L108,45z"/>
		<path class="st6" d="M83.2,89c4.4,7.4,11.9,12.4,20.4,13.7l2.2-2.2l-17-17L83.2,89z"/>
		<path class="st1" d="M106.7,84.4L97.3,75l-7.4,7.4l17,17C110.9,95.2,110.8,88.6,106.7,84.4z M106.5,93.4c-0.1,0.1-0.3,0.2-0.5,0.2
			c-0.2,0-0.4-0.1-0.5-0.2L105,93c-0.3-0.3-0.3-0.7,0-1c0.3-0.3,0.8-0.3,1,0c0,0,0,0,0,0l0.4,0.4C106.8,92.7,106.8,93.1,106.5,93.4
			L106.5,93.4z"/>
		<path class="st7" d="M111.3,92.5l-0.2,0.2c-0.1,0.1-0.3,0.2-0.5,0.2l0,0v1.3l-3.3,5.8c0,0,0,0.1,0,0.1c0,0.2-0.1,0.4-0.2,0.5
			c-0.1,0.1-0.3,0.2-0.5,0.2c-0.2,0-0.4-0.1-0.5-0.2l0,0l-2,2.1c0.5,0.1,1,0.1,1.6,0.2l2.3-2.3C110,98.4,111.2,95.6,111.3,92.5z"/>
		<path class="st7" d="M107.3,83.9l2.5,3.8l0.7,3.6l0.8-0.8c-0.3-2.7-1.5-5.2-3.5-7.1l-9.5-9.5L98,74.2l0.8,1.3L107.3,83.9z"/>
		<path class="st7" d="M88.7,83.3c-0.3-0.3-0.3-0.7,0-1c0.1-0.1,0.2-0.1,0.3-0.2l8.2-7.5c-0.2,0-0.4-0.1-0.5-0.2
			c-0.3-0.3-0.3-0.8,0-1.1L82.4,87.7c0.2,0.4,0.4,0.7,0.6,1.1L88.7,83.3z"/>
		<path class="st7" d="M88.8,83.4L88.8,83.4L88.8,83.4L83,88.7l0.2,0.3L88.8,83.4z"/>
		<path class="st7" d="M103.6,102.7h0.3l2.1-2.1l-0.2-0.2L103.6,102.7z"/>
		<path class="st7" d="M110.1,91.7l0.4-0.4l-0.7-3.6l-2.5-3.8l-8.4-8.4L98,74.2l-0.3,0.3c-0.1,0.1-0.3,0.2-0.5,0.2l0,0L89,82.1
			c0.3-0.1,0.6,0,0.8,0.2l0,0l7.4-7.4l9.5,9.5c4.1,4.1,4.2,10.7,0.2,14.9l0.2,0.2c0.1,0.1,0.2,0.3,0.2,0.4l3.3-5.8V93
			c-0.2,0-0.4-0.1-0.5-0.2C109.7,92.5,109.7,92,110.1,91.7C110,91.7,110.1,91.7,110.1,91.7z"/>
		<polygon class="st7" points="89.3,82.9 106.4,99.9 106.7,99.6 89.4,82.8 		"/>
		
			<rect x="97.2" y="79.6" transform="matrix(0.7071 -0.7071 0.7071 0.7071 -36.2413 95.8407)" class="st7" width="0.8" height="24.1"/>
		<path class="st7" d="M106.7,99.6L106.7,99.6l0.2-0.2l-17-17l-0.5,0.5L106.7,99.6z"/>
		<path class="st7" d="M106.7,99.6l-0.4,0.4l0.2,0.2l-0.5,0.5l0,0c0.1,0.1,0.3,0.2,0.5,0.2c0.2,0,0.4-0.1,0.5-0.2
			c0.1-0.1,0.2-0.3,0.2-0.5c0,0,0-0.1,0-0.1l0,0L106.7,99.6z M107.3,100.1L107.3,100.1z"/>
		<path class="st7" d="M89.3,82.9L89.3,82.9l-0.5-0.6l0.2-0.2c-0.1,0-0.2,0.1-0.3,0.2c-0.3,0.3-0.3,0.7,0,1L89.3,82.9L89.3,82.9z"/>
		<path class="st7" d="M88.8,83.4l0.5-0.5l0,0L88.8,83.4L88.8,83.4L88.8,83.4z"/>
		
			<rect x="105.8" y="100.1" transform="matrix(0.7072 -0.707 0.707 0.7072 -39.8104 104.4442)" class="st7" width="0.8" height="0.3"/>
		<path class="st7" d="M89.4,82.8l0.5-0.5l0,0c-0.2-0.2-0.5-0.3-0.8-0.2l-0.2,0.2L89.4,82.8z"/>
		<path class="st7" d="M106.9,99.4l-0.2,0.2l0,0l0.5,0.5l0,0c0-0.2-0.1-0.3-0.2-0.4L106.9,99.4z"/>
		<path class="st7" d="M106.1,92c-0.3-0.3-0.8-0.3-1,0c0,0,0,0,0,0c-0.3,0.3-0.3,0.7,0,1l0.4,0.4c0.1,0.1,0.3,0.2,0.5,0.2
			c0.2,0,0.4-0.1,0.5-0.2c0.3-0.3,0.3-0.8,0-1.1L106.1,92z"/>
		<path class="st7" d="M128.3,79c-0.3-0.3-0.3-0.7-0.1-1l0,0l-8,8c-1.8,1.7-4.2,2.6-6.6,2.5c-0.2,0-0.4,0.1-0.6,0.2l-1.7,1.8
			c0.1,0.7,0.1,1.3,0.1,2l2.5-2.5c2.8,0,5.4-1,7.4-2.9l8-8l0,0c-0.1,0.1-0.3,0.2-0.4,0.2C128.7,79.2,128.5,79.1,128.3,79z"/>
		<path class="st7" d="M111.3,90.5l-0.8,0.8l0.2,0.9V93l0,0c0.2,0,0.4-0.1,0.5-0.2l0.2-0.2C111.4,91.9,111.3,91.2,111.3,90.5z"/>
		<path class="st7" d="M110.4,91.3l-0.4,0.4c-0.3,0.3-0.3,0.8,0,1c0,0,0,0,0,0c0.1,0.1,0.3,0.2,0.5,0.2v-0.8L110.4,91.3z"/>
		<path class="st7" d="M120.7,68c0.1,0.1,0.3,0.2,0.4,0.2C121,68.2,120.8,68.1,120.7,68z"/>
		<path class="st7" d="M125.4,68c0.5,0.5,0.7,1.1,0.7,1.8c0,0.7-0.3,1.3-0.7,1.8l-1.7,1.7l0,0c-0.3,0.3-0.3,0.8,0,1.1
			c0.3,0.3,0.7,0.3,1,0l0,0c1-1,2.6-1,3.6,0c1,1,1,2.6,0,3.6c0,0,0,0-0.1,0.1l1,1h0.1c1.6-1.6,1.6-4.1,0-5.7
			c-0.7-0.7-1.6-1.1-2.5-1.2c0.5-0.7,0.7-1.5,0.7-2.3c0-2.2-1.7-4-3.9-4c0,0,0,0-0.1,0c-0.2,0-0.5,0-0.7,0.1
			c-0.1,0.8-0.5,1.6-1.1,2.2C122.8,67,124.3,67,125.4,68z"/>
		<path class="st7" d="M128.3,79c0.1,0.1,0.3,0.2,0.5,0.2c0.2,0,0.3-0.1,0.4-0.2l-1-1C128.1,78.3,128.1,78.7,128.3,79z"/>
		<path class="st7" d="M116.8,63.5c0.1,0,0.2-0.1,0.2-0.2C117,63.4,116.9,63.4,116.8,63.5z"/>
		<path class="st7" d="M116.6,63.5L116.6,63.5z"/>
		<path class="st7" d="M121.8,68c-0.2,0.2-0.4,0.2-0.6,0.2h0.1C121.4,68.2,121.6,68.1,121.8,68z"/>
		<path class="st7" d="M120.7,63.3c1,1,1,2.6,0,3.6c0.6-0.6,1.4-1,2.2-1.1c0.4-2.2-1-4.3-3.2-4.7c-0.5-0.1-1-0.1-1.5,0
			c-0.1,0.8-0.5,1.6-1.1,2.2C118.1,62.4,119.7,62.4,120.7,63.3z"/>
		<path class="st7" d="M120.7,68c0.1,0.1,0.3,0.2,0.4,0.2c0.2,0,0.5,0,0.6-0.2c0.6-0.6,1-1.4,1.1-2.2c-0.8,0.1-1.6,0.5-2.2,1.1
			C120.4,67.2,120.4,67.7,120.7,68z"/>
		<path class="st7" d="M105.2,65c0,0-0.1,0-0.1-0.1C105.2,65,105.2,65,105.2,65z"/>
		<path class="st7" d="M105.8,65.1h-0.1l0,0C105.7,65.1,105.7,65.1,105.8,65.1z"/>
		<path class="st7" d="M105.4,65.1h0.1H105.4z"/>
		<path class="st7" d="M105,64.7l0.1,0.1L105,64.7z"/>
		<path class="st7" d="M97.8,73.4l0.5,0.5l0.5-0.5c0-0.1,4.7-5.4-1.4-11.5c-1-1-1-2.6,0-3.6c1-1,2.6-1,3.6,0l1.6,1.6
			c1.2,1.3,2,2.9,2.3,4.6c0,0,0,0.1,0,0.1c-0.1-0.2,0-0.5,0.2-0.7l1-1c-0.5-1.5-1.3-2.9-2.4-4.1l-1.6-1.6l0,0
			c-1.5-1.6-4.1-1.6-5.7-0.1c0,0,0,0-0.1,0.1c-1.6,1.6-1.6,4.1,0,5.7c5.1,5.1,1.5,9.3,1.4,9.4l-1,1C97,73.1,97.5,73.1,97.8,73.4
			C97.8,73.4,97.8,73.4,97.8,73.4z"/>
		<path class="st7" d="M105.9,65.1l0.1-0.1L105.9,65.1z"/>
		<path class="st7" d="M96.7,74.4c0.1,0.1,0.3,0.2,0.5,0.2l0.7-0.6l0.1,0.2l0.3-0.3l-0.5-0.5c-0.3-0.3-0.8-0.3-1.1,0
			C96.5,73.7,96.5,74.1,96.7,74.4z"/>
		<path class="st7" d="M97.8,74.4l0.3-0.3L97.9,74l-0.7,0.6l0,0C97.4,74.6,97.6,74.6,97.8,74.4z"/>
		<path class="st7" d="M116.6,63.5c0.1,0,0.2,0,0.2,0C116.8,63.5,116.7,63.5,116.6,63.5z"/>
		<path class="st7" d="M116.6,63.5c-0.2,0-0.4-0.1-0.5-0.2C116.2,63.5,116.4,63.5,116.6,63.5L116.6,63.5z"/>
		<path class="st7" d="M112.4,57.6c0.3,0.3,0.3,0.8,0,1.1c1-1,2.6-1,3.6,0c1,1,1,2.6,0,3.6c0,0,0,0,0,0c0.6-0.6,1.4-1,2.2-1.1
			c0.5-2.2-0.9-4.3-3.1-4.7c-1.4-0.3-2.8,0.2-3.7,1.2C111.7,57.3,112.1,57.3,112.4,57.6z"/>
		<path class="st7" d="M116,63.3c0.1,0.1,0.3,0.2,0.5,0.2l0,0c0.1,0,0.2,0,0.2,0c0.1,0,0.2-0.1,0.2-0.2c0.6-0.6,1-1.4,1.1-2.2
			c-0.8,0.1-1.6,0.5-2.1,1.1C115.7,62.6,115.7,63,116,63.3z"/>
		<path class="st7" d="M105.2,65l0.1,0.1L105.2,65z"/>
		<path class="st7" d="M105.8,65.1c0.1,0,0.1,0,0.2,0C105.9,65.1,105.8,65.1,105.8,65.1z"/>
		<path class="st7" d="M104.9,64.6c0,0.1,0,0.1,0,0.2C104.9,64.7,104.9,64.6,104.9,64.6z"/>
		<path class="st7" d="M106.1,65L106.1,65l6.4-6.3c-0.3,0.3-0.8,0.3-1.1,0c-0.3-0.3-0.3-0.8,0-1c0,0,0,0,0,0l-5.4,5.3
			c0.1,0.5,0.3,0.9,0.3,1.4C106.4,64.6,106.3,64.8,106.1,65z"/>
		<path class="st7" d="M105.1,65l-0.1-0.1C105,64.9,105.1,64.9,105.1,65L105.1,65z"/>
		<path class="st7" d="M105.7,65.1h-0.2H105.7L105.7,65.1z"/>
		<path class="st7" d="M104.9,64.6c0,0.1,0,0.1,0,0.2l0.1,0.1l0.1,0.1c0,0,0.1,0.1,0.1,0.1l0.1,0.1h0.1h0.2h0.1c0.1,0,0.1,0,0.2,0
			L106,65c0.2-0.2,0.3-0.4,0.3-0.7c-0.1-0.5-0.2-0.9-0.3-1.4l-1,1C104.9,64.1,104.8,64.4,104.9,64.6z"/>
		<path class="st7" d="M111.4,58.7c0.3,0.3,0.8,0.3,1.1,0c0.3-0.3,0.3-0.8,0-1.1s-0.8-0.3-1.1,0c0,0,0,0,0,0
			C111.1,57.9,111.1,58.3,111.4,58.7C111.4,58.6,111.4,58.6,111.4,58.7z"/>
		<path class="st7" d="M108,46.5c15.2,0,27.5,12.3,27.5,27.5s-12.3,27.5-27.5,27.5S80.5,89.2,80.5,74C80.5,58.8,92.8,46.5,108,46.5
			 M108,45c-16,0-29,13-29,29s13,29,29,29s29-13,29-29S124,45,108,45z"/>
		<path class="st8" d="M65.2,97.5H21.9c-0.8,0-1.4-0.6-1.4-1.4l0,0V85.8c0-7.5,6.1-13.6,13.6-13.6c0,0,0,0,0,0h18.7
			c7.5,0,13.6,6.1,13.6,13.6c0,0,0,0,0,0v10.3C66.5,96.9,65.9,97.5,65.2,97.5C65.2,97.5,65.2,97.5,65.2,97.5z"/>
		<circle class="st8" cx="43.6" cy="56.1" r="10.5"/>
		<path class="st8" d="M27.5,60.3c0.7,1.9,1.8,3.6,3.2,5.1"/>
		<path class="st8" d="M40,41c-7.3,0-13.3,5.9-13.3,13.2c0,0,0,0,0,0"/>
		<line class="st8" x1="45.2" y1="104.8" x2="21.5" y2="104.8"/>
		<line class="st8" x1="55.3" y1="104.8" x2="50.2" y2="104.8"/>
		<circle class="st0" cx="265" cy="32" r="16"/>
		<path class="st6" d="M251.5,40.6c4.7,7.5,14.6,9.7,22.1,4.9c6.8-4.3,9.3-13.1,5.9-20.4c0,0-7.8,15.1-25.4,15.1L251.5,40.6z"/>
		<path class="st7" d="M265,17.5c8,0,14.5,6.5,14.5,14.5S273,46.5,265,46.5S250.5,40,250.5,32C250.5,24,257,17.5,265,17.5 M265,16
			c-8.8,0-16,7.2-16,16s7.2,16,16,16s16-7.2,16-16S273.8,16,265,16z"/>
		<ellipse transform="matrix(0.9713 -0.2379 0.2379 0.9713 2.795 63.2553)" class="st6" cx="263.5" cy="20" rx="2.5" ry="1.4"/>
		<circle class="st0" cx="265" cy="75.5" r="16"/>
		<path class="st6" d="M251.5,84.1c4.7,7.5,14.6,9.7,22.1,4.9c6.8-4.3,9.3-13.1,5.9-20.4c0,0-7.8,15.1-25.4,15.1L251.5,84.1z"/>
		<path class="st7" d="M265,61c8,0,14.5,6.5,14.5,14.5S273,90,265,90s-14.5-6.5-14.5-14.5C250.5,67.5,257,61,265,61 M265,59.5
			c-8.8,0-16,7.2-16,16s7.2,16,16,16s16-7.2,16-16S273.8,59.5,265,59.5z"/>
		<ellipse transform="matrix(0.9713 -0.2379 0.2379 0.9713 -7.5522 64.503)" class="st6" cx="263.5" cy="63.5" rx="2.5" ry="1.4"/>
		<circle class="st0" cx="265" cy="119" r="16"/>
		<path class="st6" d="M251.5,127.6c4.7,7.5,14.6,9.7,22.1,4.9c6.8-4.3,9.3-13.1,5.9-20.4c0,0-7.8,15.2-25.5,15.2L251.5,127.6z"/>
		<path class="st7" d="M265,104.5c8,0,14.5,6.5,14.5,14.5s-6.5,14.5-14.5,14.5s-14.5-6.5-14.5-14.5C250.5,111,257,104.5,265,104.5
			 M265,103c-8.8,0-16,7.2-16,16s7.2,16,16,16s16-7.2,16-16S273.8,103,265,103z"/>
		<ellipse transform="matrix(0.9713 -0.2379 0.2379 0.9713 -17.8994 65.7507)" class="st6" cx="263.5" cy="107" rx="2.5" ry="1.4"/>
		<path class="st9" d="M192.2,72.2h18.7c7.5,0,13.6,6.1,13.6,13.6v10.3c0,0.8-0.6,1.4-1.4,1.4l0,0h-43.3c-0.8,0-1.4-0.6-1.4-1.4l0,0
			V85.8C178.6,78.3,184.7,72.2,192.2,72.2z"/>
		<circle class="st9" cx="201.6" cy="56.1" r="10.5"/>
		<path class="st9" d="M217.7,60.3c-0.7,1.9-1.8,3.6-3.2,5.1"/>
		<path class="st9" d="M205.2,41c7.3,0,13.2,5.9,13.3,13.2"/>
		<line class="st9" x1="200" y1="104.8" x2="223.6" y2="104.8"/>
		<line class="st9" x1="189.8" y1="104.8" x2="194.9" y2="104.8"/>
	</g>
</g>
</svg>
