<svg xmlns="http://www.w3.org/2000/svg" viewBox="0 0 300 150"><defs><style>.cls-1{fill:#ffe6c8;}.cls-2{fill:#fff;}.cls-3{fill:#ae8186;}.cls-4{fill:none;stroke:#ae8186;stroke-linecap:round;stroke-linejoin:round;stroke-width:3px;}</style></defs><g id="Layer_20" data-name="Layer 20"><circle class="cls-1" cx="145" cy="74" r="46"/><path class="cls-2" d="M99,73.88a46,46,0,1,1,92,.24Z"/><path class="cls-3" d="M145,28v3h0a43,43,0,1,1-27.63,10.07A42.93,42.93,0,0,1,145,31V28m0,0a46,46,0,1,0,35.24,16.42A45.82,45.82,0,0,0,145,28Z"/><path class="cls-4" d="M145.26,118.2S117,117.32,117,86c0,0-.67-25.92,24.82-27.95"/><polygon class="cls-3" points="133.87 72 131.51 70.14 140.72 58.56 128.5 50.22 130.19 47.74 145.07 57.9 133.87 72"/><path class="cls-4" d="M146,29.55s28.26.87,28.26,32.23c0,0,.67,25.91-24.82,28"/><polygon class="cls-3" points="157.39 75.75 159.75 77.61 150.54 89.19 162.76 97.52 161.07 100 146.19 89.85 157.39 75.75"/></g></svg>