<svg xmlns="http://www.w3.org/2000/svg" viewBox="0 0 300 150"><defs><style>.cls-1{fill:#ffe6c8;}.cls-2{fill:#fff;}.cls-3,.cls-5,.cls-6,.cls-7{fill:none;stroke:#ae8186;stroke-miterlimit:10;stroke-width:3px;}.cls-4{fill:#ae8186;}.cls-5,.cls-6,.cls-7{stroke-linecap:round;}.cls-6{stroke-dasharray:0.86 6.9;}.cls-7{stroke-dasharray:1.08 8.63;}</style></defs><g id="Layer_20" data-name="Layer 20"><circle class="cls-1" cx="145.23" cy="73.98" r="46"/><path class="cls-2" d="M191.23,74.1a46,46,0,1,0-92-.24s9,32.62,49,32.62S191.23,74.81,191.23,74.1Z"/><path class="cls-3" d="M100.68,70.73A44.67,44.67,0,1,1,145,118.65"/><polygon class="cls-4" points="114.41 62.46 112.49 60.15 101.12 69.61 92.51 57.59 90.07 59.34 100.56 73.98 114.41 62.46"/><path class="cls-5" d="M111,102.71c-.1-.13-.21-.25-.32-.38"/><path class="cls-6" d="M106.74,96.68a44.53,44.53,0,0,1-6-18.75"/><path class="cls-5" d="M100.56,74.48V74"/><path class="cls-5" d="M145,118.65h-.5"/><path class="cls-7" d="M136,117.69a44.45,44.45,0,0,1-21.66-11.45"/><path class="cls-5" d="M111.35,103.09l-.33-.38"/><path class="cls-4" d="M162.45,58.91H128a4.32,4.32,0,0,0-4.31,4.31V84.75a4.31,4.31,0,0,0,4.31,4.3h34.44a4.31,4.31,0,0,0,4.31-4.3V63.22A4.32,4.32,0,0,0,162.45,58.91Zm0,25.84H128V71.83h34.44Zm0-19.38H128V63.22h34.44Zm-30.14,11v1.29h1.29V76.35Zm7.75,2.59v1.29h2.59V78.94h1.29v-1.3h1.29V76.35h-2.58v1.29h-1.3v1.3Zm5.17,1.29V78.94h-1.29v1.29Zm-6.46,0V78.94h-2.58v1.29Zm1.29-2.59h1.29V76.35h-2.58v2.59h1.29Zm-5.17,1.3h1.3v-1.3h1.29V76.35h-2.59v1.29H133.6v1.3h-1.29v1.29h2.58Z"/></g></svg>