<svg xmlns="http://www.w3.org/2000/svg" viewBox="0 0 300 150"><defs><style>.cls-1{fill:#ffe6c8;}.cls-2{fill:#fff;}.cls-3{fill:#ae8186;}.cls-4{fill:none;stroke:#ae8186;stroke-linecap:round;stroke-linejoin:round;stroke-width:3px;}</style></defs><g id="Completed"><g id="Symbols_copy_3" data-name="Symbols copy 3"><circle class="cls-1" cx="145" cy="74" r="46"/><path class="cls-2" d="M115.7,109.46a46,46,0,0,1,58.6-70.92Z"/><path class="cls-3" d="M145,31a43,43,0,1,1-43,43,43,43,0,0,1,43-43m0-3a46,46,0,1,0,46,46,46,46,0,0,0-46-46Z"/><line class="cls-4" x1="104.82" y1="92.51" x2="146.21" y2="51.12"/><polygon class="cls-3" points="147.86 66.82 144.86 66.72 145.4 51.93 130.61 52.47 130.51 49.47 148.51 48.82 147.86 66.82"/><line class="cls-4" x1="186.51" y1="58.41" x2="146.96" y2="97.95"/><polygon class="cls-3" points="145.32 82.25 148.32 82.35 147.78 97.13 162.56 96.59 162.66 99.6 144.66 100.25 145.32 82.25"/></g></g></svg>