<svg xmlns="http://www.w3.org/2000/svg" viewBox="0 0 300 150"><defs><style>.cls-1{fill:#fff;}.cls-2{fill:#f1faff;}.cls-3{fill:#b1cce0;}.cls-10,.cls-11,.cls-4,.cls-5,.cls-6,.cls-9{fill:none;stroke-linecap:round;}.cls-4{stroke:#b1cce0;}.cls-4,.cls-5,.cls-6{stroke-miterlimit:10;}.cls-10,.cls-11,.cls-4,.cls-5,.cls-6{stroke-width:1.5px;}.cls-11,.cls-5{stroke:#fff;}.cls-10,.cls-6,.cls-9{stroke:#ae8186;}.cls-7{fill:#ffe6c8;}.cls-8{fill:#ae8186;}.cls-10,.cls-11,.cls-9{stroke-linejoin:round;}.cls-9{stroke-width:2px;}</style></defs><g id="Completed"><g id="Backgrounders_copy_3" data-name="Backgrounders copy 3"><rect class="cls-1" x="-9.5" y="-9" width="321" height="164"/><path d="M311-8.5v163H-9V-8.5H311m1-1H-10v165H312V-9.5Z"/><rect class="cls-2" x="90" y="-4" width="121" height="158"/><rect class="cls-3" x="-10" y="-9.5" width="101.5" height="165"/><polygon class="cls-3" points="149.5 75.1 91 0.2 91 150 149.5 75.1"/><polygon class="cls-1" points="151.5 75.1 210 150 210 0.2 151.5 75.1"/><rect class="cls-1" x="210" y="-4" width="98" height="158"/></g><g id="Accent_Lines_copy_3" data-name="Accent Lines copy 3"><line class="cls-4" x1="137.5" y1="131.84" x2="170.15" y2="131.84"/><line class="cls-4" x1="126.15" y1="131.84" x2="134.5" y2="131.84"/><line class="cls-4" x1="106.15" y1="11.84" x2="114.5" y2="11.84"/><line class="cls-4" x1="167.5" y1="113.84" x2="200.15" y2="113.84"/><line class="cls-4" x1="156.15" y1="97.84" x2="164.5" y2="97.84"/><line class="cls-4" x1="117.5" y1="11.84" x2="150.15" y2="11.84"/><line class="cls-4" x1="177.5" y1="118.84" x2="210.15" y2="118.84"/><line class="cls-4" x1="97.5" y1="17.84" x2="130.15" y2="17.84"/><line class="cls-4" x1="116.15" y1="139.84" x2="144.5" y2="139.84"/><line class="cls-4" x1="203.81" y1="35.84" x2="171.15" y2="35.84"/><line class="cls-4" x1="180.15" y1="30.84" x2="151.81" y2="30.84"/><line class="cls-5" x1="27.85" y1="126.84" x2="60.5" y2="126.84"/><line class="cls-5" x1="16.5" y1="126.84" x2="24.85" y2="126.84"/><line class="cls-5" x1="-3.5" y1="6.84" x2="4.85" y2="6.84"/><line class="cls-5" x1="7.85" y1="6.84" x2="40.5" y2="6.84"/><line class="cls-5" x1="-12.15" y1="12.84" x2="20.5" y2="12.84"/><line class="cls-5" x1="6.5" y1="134.84" x2="34.85" y2="134.84"/><line class="cls-5" x1="98.15" y1="30.84" x2="65.5" y2="30.84"/><line class="cls-5" x1="74.5" y1="25.84" x2="46.15" y2="25.84"/><line class="cls-5" x1="56.5" y1="143.84" x2="64.85" y2="143.84"/><line class="cls-5" x1="67.85" y1="143.84" x2="100.5" y2="143.84"/><line class="cls-6" x1="237.5" y1="127.84" x2="270.15" y2="127.84"/><line class="cls-6" x1="247.5" y1="135.84" x2="280.15" y2="135.84"/><line class="cls-6" x1="245.15" y1="20.84" x2="253.5" y2="20.84"/><line class="cls-6" x1="256.5" y1="20.84" x2="289.15" y2="20.84"/><line class="cls-6" x1="236.5" y1="26.84" x2="269.15" y2="26.84"/><line class="cls-6" x1="181.76" y1="113.84" x2="200.15" y2="113.84"/><line class="cls-6" x1="185.66" y1="118.84" x2="210.15" y2="118.84"/><line class="cls-6" x1="203.81" y1="35.84" x2="181.73" y2="35.84"/></g><g id="Symbols_copy_3" data-name="Symbols copy 3"><circle class="cls-7" cx="151" cy="74" r="29"/><path class="cls-1" d="M132.53,96.36a29,29,0,1,1,36.94-44.72Z"/><path class="cls-8" d="M151,46.5A27.5,27.5,0,1,1,123.5,74,27.54,27.54,0,0,1,151,46.5m0-1.5a29,29,0,1,0,29,29,29,29,0,0,0-29-29Z"/><line class="cls-9" x1="125.67" y1="85.67" x2="151.68" y2="59.66"/><polygon class="cls-8" points="152.78 70.13 150.78 70.06 151.14 60.2 141.28 60.56 141.21 58.56 153.22 58.13 152.78 70.13"/><line class="cls-9" x1="177.17" y1="64.17" x2="152.32" y2="89.02"/><polygon class="cls-8" points="151.22 78.55 153.22 78.62 152.86 88.47 162.72 88.11 162.79 90.11 150.78 90.55 151.22 78.55"/><circle class="cls-1" cx="267" cy="75.5" r="23"/><path class="cls-7" d="M247.61,87.87a23,23,0,0,0,40.17-22.25S276.52,87.4,251.14,87.4Z"/><path class="cls-8" d="M267,54a21.5,21.5,0,1,1-21.5,21.5A21.52,21.52,0,0,1,267,54m0-1.5a23,23,0,1,0,23,23,23,23,0,0,0-23-23Z"/><ellipse class="cls-7" cx="264.87" cy="58.3" rx="3.57" ry="1.98" transform="translate(-6.26 64.69) rotate(-13.76)"/><path class="cls-10" d="M204.2,72.17h18.74a13.62,13.62,0,0,1,13.62,13.62V96.1a1.36,1.36,0,0,1-1.36,1.36H191.94a1.36,1.36,0,0,1-1.36-1.36V85.79A13.62,13.62,0,0,1,204.2,72.17Z"/><circle class="cls-10" cx="213.57" cy="56.12" r="10.49"/><path class="cls-10" d="M229.68,60.29a13.33,13.33,0,0,1-3.21,5.07"/><path class="cls-10" d="M217.16,41a13.25,13.25,0,0,1,13.25,13.24"/><line class="cls-10" x1="211.97" y1="104.77" x2="235.6" y2="104.77"/><line class="cls-10" x1="201.84" y1="104.77" x2="206.91" y2="104.77"/><path class="cls-11" d="M66.94,72.17H110.2a1.36,1.36,0,0,1,1.36,1.36V83.84A13.62,13.62,0,0,1,97.94,97.46H79.2A13.62,13.62,0,0,1,65.58,83.84V73.53a1.36,1.36,0,0,1,1.36-1.36Z" transform="translate(177.13 169.63) rotate(-180)"/><circle class="cls-11" cx="88.57" cy="56.12" r="10.49"/><path class="cls-11" d="M72.46,60.29a13.31,13.31,0,0,0,3.2,5.07"/><path class="cls-11" d="M85,41A13.25,13.25,0,0,0,71.72,54.24"/><line class="cls-11" x1="90.16" y1="104.77" x2="66.53" y2="104.77"/><line class="cls-11" x1="100.29" y1="104.77" x2="95.23" y2="104.77"/><circle class="cls-1" cx="34" cy="75.5" r="23"/><path class="cls-7" d="M14.61,87.87A23,23,0,0,0,54.78,65.62S43.52,87.4,18.14,87.4Z"/><path class="cls-8" d="M34,54A21.5,21.5,0,1,1,12.5,75.5,21.52,21.52,0,0,1,34,54m0-1.5a23,23,0,1,0,23,23,23,23,0,0,0-23-23Z"/><ellipse class="cls-7" cx="31.87" cy="58.3" rx="3.57" ry="1.98" transform="translate(-12.96 9.26) rotate(-13.76)"/></g></g></svg>