<svg xmlns="http://www.w3.org/2000/svg" viewBox="0 0 300 150"><defs><style>.cls-1,.cls-5{fill:#fff;}.cls-2{fill:#ae8186;}.cls-3{fill:#ffe6c8;}.cls-4{fill:none;stroke-linecap:round;stroke-linejoin:round;stroke-width:3px;}.cls-4,.cls-5{stroke:#ae8186;}.cls-5{stroke-miterlimit:10;stroke-width:2px;}</style></defs><g id="Layer_20" data-name="Layer 20"><path class="cls-1" d="M99,73.88a46,46,0,1,1,92,.24Z"/><path class="cls-2" d="M145,28v3h0a43,43,0,1,1-27.63,10.07A42.93,42.93,0,0,1,145,31V28m0,0a46,46,0,1,0,35.24,16.42A45.82,45.82,0,0,0,145,28Z"/><rect class="cls-3" x="130.82" y="55.08" width="33.31" height="46.74" rx="2.53"/><rect class="cls-4" x="126.16" y="48.55" width="37.97" height="53.28" rx="2.89"/><line class="cls-4" x1="132.07" y1="56.42" x2="158.22" y2="56.42"/><line class="cls-4" x1="132.07" y1="64.45" x2="158.22" y2="64.45"/><line class="cls-4" x1="132.07" y1="72.48" x2="158.22" y2="72.48"/><line class="cls-4" x1="132.07" y1="80.52" x2="152.38" y2="80.52"/><line class="cls-4" x1="132.07" y1="88.55" x2="152.38" y2="88.55"/><circle class="cls-5" cx="161.41" cy="51.73" r="10"/><path class="cls-2" d="M162.28,57.06v1.5H160.7v-1.5a3.31,3.31,0,0,1-3.16-2.75l1.77-.46a2,2,0,0,0,2.24,1.75c1.08,0,1.82-.49,1.82-1.47,0-1.39-1.44-1.53-2.86-1.9s-2.78-.87-2.78-2.9a2.83,2.83,0,0,1,2.8-2.92V44.9h1.61v1.51a3.2,3.2,0,0,1,3,2.5l-1.68.44a1.87,1.87,0,0,0-2.1-1.5c-1.25,0-1.83.58-1.83,1.39,0,1.09.93,1.35,2.37,1.68s3.35.81,3.35,3.12C165.27,55.81,164.07,56.84,162.28,57.06Z"/></g></svg>