<svg xmlns="http://www.w3.org/2000/svg" viewBox="0 0 300 150"><defs><style>.cls-1{fill:#ffe6c8;}.cls-2{fill:#fff;}.cls-3{fill:#ae8186;}.cls-4,.cls-5,.cls-6,.cls-7{fill:none;stroke:#ae8186;stroke-miterlimit:10;stroke-width:3px;}.cls-5,.cls-6,.cls-7{stroke-linecap:round;}.cls-6{stroke-dasharray:0.86 6.9;}.cls-7{stroke-dasharray:1.08 8.63;}</style></defs><g id="Layer_20" data-name="Layer 20"><circle class="cls-1" cx="145" cy="74" r="46"/><path class="cls-2" d="M191,74.12a46,46,0,1,0-92-.24s9,32.62,49,32.62S191,74.83,191,74.12Z"/><path class="cls-3" d="M147.74,92.51v5h-5.3v-5c-4.62-.61-9.42-2.89-10.53-9.17l5.91-1.54c.43,3.26,3,5.85,7.45,5.85,3.64,0,6.1-1.66,6.1-4.93,0-4.62-4.8-5.11-9.55-6.34-4.31-1.11-9.29-2.89-9.29-9.67,0-5.6,3.51-9,9.36-9.72V51.94h5.35V57c5.42.61,8.93,3.44,10.1,8.31l-5.6,1.48c-.68-3.08-2.77-5-7-5s-6.1,1.91-6.1,4.62c0,3.63,3.08,4.49,7.88,5.6s11.21,2.71,11.21,10.41C157.71,88.33,153.71,91.77,147.74,92.51Z"/><path class="cls-4" d="M100.45,70.75a44.66,44.66,0,1,1,44.37,47.92"/><polygon class="cls-3" points="114.18 62.48 112.26 60.17 100.89 69.63 92.28 57.6 89.84 59.35 100.33 74 114.18 62.48"/><path class="cls-5" d="M110.8,102.73l-.32-.39"/><path class="cls-6" d="M106.52,96.69a44.32,44.32,0,0,1-6-18.74"/><path class="cls-5" d="M100.33,74.5V74"/><path class="cls-5" d="M144.82,118.67h-.5"/><path class="cls-7" d="M135.75,117.7a44.37,44.37,0,0,1-21.66-11.45"/><path class="cls-5" d="M111.12,103.11c-.11-.13-.22-.25-.32-.38"/></g></svg>