<?xml version="1.0" encoding="utf-8"?>
<!-- Generator: Adobe Illustrator 25.2.3, SVG Export Plug-In . SVG Version: 6.00 Build 0)  -->
<svg version="1.1" id="Layer_1" xmlns="http://www.w3.org/2000/svg" xmlns:xlink="http://www.w3.org/1999/xlink" x="0px" y="0px"
	 viewBox="0 0 300 150" style="enable-background:new 0 0 300 150;" xml:space="preserve">
<style type="text/css">
	.st0{fill:#FFFFFF;}
	.st1{fill:#B1CCE0;}
	.st2{fill:none;stroke:#B1CCE0;stroke-width:1.5;stroke-linecap:round;stroke-miterlimit:10;}
	.st3{fill:none;stroke:#FFFFFF;stroke-linecap:round;stroke-linejoin:round;}
	.st4{fill:none;stroke:#AE8186;stroke-width:1.5;stroke-linecap:round;stroke-linejoin:round;}
	.st5{fill:#FFFFFF;stroke:#D6E9F8;stroke-miterlimit:10;}
	.st6{fill:none;stroke:#AE8186;stroke-width:2;stroke-linecap:round;stroke-linejoin:round;}
	.st7{fill:#AE8186;}
	.st8{fill:#FFE6C8;}
	.st9{fill:none;stroke:#FFFFFF;stroke-width:1.5;stroke-linecap:round;stroke-linejoin:round;}
</style>
<g id="Requisition">
	<g id="Backgrounders_copy_2">
		<rect x="-14" y="-7" class="st0" width="319.5" height="164"/>
		<path d="M305-6.5v163H-13.5v-163H305 M306-7.5H-14.5v165H306V-7.5z"/>
		<rect x="-14.5" y="-7.5" class="st1" width="122" height="165"/>
	</g>
	<g id="Accent_Lines_copy_2">
		<line class="st2" x1="102.8" y1="109.8" x2="131.2" y2="109.8"/>
		<line class="st2" x1="159.5" y1="42.8" x2="126.8" y2="42.8"/>
		<line class="st2" x1="162.9" y1="7.8" x2="134.5" y2="7.8"/>
		<line class="st2" x1="194.2" y1="128.8" x2="226.9" y2="128.8"/>
		<line class="st2" x1="172.9" y1="136.8" x2="201.2" y2="136.8"/>
		<line class="st3" x1="15.5" y1="30.8" x2="-17.1" y2="30.8"/>
		<line class="st3" x1="26.9" y1="30.8" x2="18.5" y2="30.8"/>
		<line class="st3" x1="106.8" y1="32.8" x2="78.5" y2="32.8"/>
		<line class="st3" x1="68.2" y1="126.8" x2="100.8" y2="126.8"/>
		<line class="st3" x1="46.8" y1="134.8" x2="75.2" y2="134.8"/>
		<line class="st3" x1="49.5" y1="10.8" x2="16.9" y2="10.8"/>
		<line class="st3" x1="70.8" y1="19.5" x2="42.5" y2="19.5"/>
		<line class="st3" x1="115.5" y1="80.8" x2="82.8" y2="80.8"/>
		<line class="st4" x1="216.3" y1="56.8" x2="194.9" y2="44.6"/>
		<line class="st4" x1="274.6" y1="54.3" x2="290.5" y2="44.6"/>
		<line class="st4" x1="246.6" y1="41.5" x2="247" y2="19.5"/>
		<line class="st4" x1="275.3" y1="95.8" x2="294.1" y2="106.4"/>
		<line class="st4" x1="216.7" y1="95.2" x2="198.5" y2="106.4"/>
		<line class="st4" x1="246.4" y1="109.5" x2="246" y2="131.5"/>
		<line class="st3" x1="-11.8" y1="116.8" x2="20.9" y2="116.8"/>
		<path class="st5" d="M21.3,139.5h35.3c4.9,0,8.8,4,8.8,8.8v2.3c0,4.9-4,8.8-8.8,8.8H21.3c-4.9,0-8.8-4-8.8-8.8v-2.3
			C12.5,143.5,16.5,139.5,21.3,139.5z"/>
		<path class="st5" d="M70.5-5.5h35.3c4.9,0,8.8,4,8.8,8.8v2.3c0,4.9-4,8.8-8.8,8.8H70.5c-4.9,0-8.8-4-8.8-8.8V3.3
			C61.7-1.5,65.6-5.5,70.5-5.5z"/>
		<path class="st5" d="M125.3,115.5h35.3c4.9,0,8.8,4,8.8,8.8v2.3c0,4.9-4,8.8-8.8,8.8h-35.3c-4.9,0-8.8-4-8.8-8.8v-2.3
			C116.5,119.5,120.5,115.5,125.3,115.5z"/>
		<line class="st2" x1="174.9" y1="7.8" x2="166.5" y2="7.8"/>
		<line class="st2" x1="189.9" y1="128.8" x2="181.5" y2="128.8"/>
		<line class="st2" x1="192.5" y1="15.8" x2="159.9" y2="15.8"/>
	</g>
	<g id="Symbols_copy_2">
		<line class="st6" x1="142" y1="75.7" x2="206.8" y2="75.7"/>
		<polygon class="st7" points="200.2,83.9 198.8,82.4 206.1,75.7 198.8,69 200.2,67.6 209,75.7 		"/>
		<circle class="st0" cx="108" cy="75.7" r="29"/>
		<path class="st7" d="M108,48.2c15.2,0,27.5,12.3,27.5,27.5s-12.3,27.5-27.5,27.5S80.5,90.9,80.5,75.7l0,0
			C80.5,60.6,92.8,48.3,108,48.2 M108,46.7c-16,0-29,13-29,29s13,29,29,29s29-13,29-29l0,0C137,59.7,124,46.7,108,46.7z"/>
		<path class="st8" d="M100.6,63.9h17.8c0.9,0,1.6,0.7,1.6,1.6v26.3c0,0.9-0.7,1.6-1.6,1.6h-17.8c-0.9,0-1.6-0.7-1.6-1.6V65.5
			C99,64.6,99.7,63.9,100.6,63.9z"/>
		<path class="st4" d="M97.9,59.8h20.3c1,0,1.8,0.8,1.8,1.8v30c0,1-0.8,1.8-1.8,1.8H97.9c-1,0-1.8-0.8-1.8-1.8v-30
			C96.1,60.6,96.9,59.8,97.9,59.8z"/>
		<line class="st4" x1="99.8" y1="64.8" x2="116.3" y2="64.8"/>
		<line class="st4" x1="99.8" y1="69.8" x2="116.3" y2="69.8"/>
		<line class="st4" x1="99.8" y1="74.9" x2="116.3" y2="74.9"/>
		<line class="st4" x1="99.8" y1="79.9" x2="112.6" y2="79.9"/>
		<line class="st4" x1="99.8" y1="85" x2="112.6" y2="85"/>
		<circle class="st0" cx="246" cy="75.7" r="29"/>
		<path class="st8" d="M221.6,91.3c8.6,13.5,26.5,17.6,40,9c12.4-7.9,17-23.8,10.6-37.1c0,0-14.2,27.5-46.2,27.5L221.6,91.3z"/>
		<path class="st7" d="M246,48.2c15.2,0,27.5,12.3,27.5,27.5s-12.3,27.5-27.5,27.5s-27.5-12.3-27.5-27.5l0,0
			C218.5,60.6,230.8,48.3,246,48.2 M246,46.7c-16,0-29,13-29,29s13,29,29,29s29-13,29-29l0,0C275,59.7,262,46.7,246,46.7z"/>
		<ellipse transform="matrix(0.9713 -0.2379 0.2379 0.9713 -5.4967 58.9421)" class="st8" cx="241.5" cy="52.2" rx="4.5" ry="2.5"/>
		<path class="st9" d="M64.6,97.5H21.4c-0.8,0-1.4-0.6-1.4-1.3c0,0,0,0,0,0V85.8c0-7.5,6.1-13.6,13.6-13.6c0,0,0,0,0,0h18.7
			c7.5,0,13.6,6.1,13.6,13.6c0,0,0,0,0,0v10.3C66,96.9,65.4,97.5,64.6,97.5C64.6,97.5,64.6,97.5,64.6,97.5L64.6,97.5z"/>
		<circle class="st9" cx="43" cy="56.1" r="10.5"/>
		<path class="st9" d="M26.9,60.3c0.7,1.9,1.8,3.6,3.2,5.1"/>
		<path class="st9" d="M39.4,41c-7.3,0-13.2,5.9-13.2,13.2c0,0,0,0,0,0"/>
		<line class="st9" x1="44.6" y1="104.8" x2="21" y2="104.8"/>
		<line class="st9" x1="54.7" y1="104.8" x2="49.7" y2="104.8"/>
		<path class="st0" d="M175.6,84.2l0.9-0.9c0.1-0.1,0.2-0.1,0.3-0.1c1.3,0,2.5-0.4,3.4-1.3l4.1-4.1l0,0l0,0c0.5-0.5,0.5-1.3,0-1.9
			c-0.5-0.5-1.3-0.5-1.9,0l0,0c-0.1,0.1-0.4,0.2-0.5,0c0,0,0,0,0,0c-0.2-0.2-0.2-0.4,0-0.6l0,0l0.9-0.9c0.2-0.2,0.4-0.6,0.4-0.9
			c0-0.3-0.1-0.7-0.4-0.9c-0.5-0.5-1.3-0.5-1.9,0c-0.1,0.1-0.2,0.1-0.3,0.1l0,0c-0.1,0-0.2,0-0.2-0.1c-0.2-0.2-0.2-0.4,0-0.6
			c0.5-0.5,0.5-1.3,0-1.9c-0.5-0.5-1.3-0.5-1.9,0c0,0-0.1,0.1-0.1,0.1h-0.1l0,0c-0.1,0-0.2,0-0.3-0.1c-0.1-0.1-0.2-0.4,0-0.5
			c0,0,0,0,0,0c0.5-0.5,0.5-1.3,0-1.9c-0.5-0.5-1.3-0.5-1.9,0l-3.2,3.2l0,0h-0.1h-0.1h-0.2h-0.1h-0.1l0,0l0,0c0,0,0,0,0-0.1
			c0,0,0-0.1,0-0.1l0,0c-0.2-0.9-0.6-1.7-1.2-2.4l-0.8-0.8c-0.5-0.5-1.3-0.5-1.9,0c-0.5,0.5-0.5,1.3,0,1.8c3.1,3.2,0.8,5.9,0.7,5.9
			l-0.2,0.2l4.9,4.9C174.9,81.6,175.4,82.9,175.6,84.2z"/>
		<path class="st0" d="M173.9,60.8c-8.2,0-14.9,6.6-15,14.9c0,2.5,0.6,4.9,1.8,7.1l7.4-7.4l0.5-0.5c0.1-0.1,1.9-2.2-0.7-4.8
			c-0.8-0.8-0.8-2.2,0-3s2.2-0.8,3,0l0,0c0,0,0,0.1,0.8,0.8c0.6,0.6,1,1.3,1.2,2.1l2.7-2.7c0.8-0.8,2.1-0.8,2.9,0
			c0.5,0.5,0.7,1.2,0.6,1.8c0.1,0,0.2,0,0.4,0c0.6,0,1.1,0.2,1.5,0.6c0.5,0.5,0.7,1.2,0.6,1.8c0.1,0,0.2,0,0.4,0
			c0.6,0,1.1,0.2,1.5,0.6c0.4,0.4,0.6,0.9,0.6,1.5c0,0.4-0.1,0.8-0.4,1.2c0.5,0,0.9,0.2,1.3,0.6c0.8,0.8,0.9,2.1,0.1,2.9
			c0,0,0,0-0.1,0.1l0,0l0,0l-4.1,4.1c-1,1-2.4,1.5-3.9,1.5l-1.3,1.3c-0.1,1.6-0.7,3-1.8,4.2l-1.2,1.2c0.4,0,0.9,0.1,1.3,0.1
			c8.2,0,14.9-6.7,14.9-14.9S182.1,60.8,173.9,60.8L173.9,60.8z"/>
		<path class="st8" d="M161.1,83.5c2.3,3.8,6.1,6.3,10.5,7l1.1-1.1l-8.8-8.8L161.1,83.5z"/>
		<path class="st1" d="M173.3,81.1l-4.9-4.9l-3.8,3.8l8.8,8.8C175.4,86.6,175.3,83.2,173.3,81.1z M173.1,85.7
			c-0.1,0.1-0.2,0.1-0.3,0.1c-0.1,0-0.2,0-0.3-0.1l-0.2-0.2c-0.1-0.1-0.1-0.4,0-0.5c0.1-0.1,0.4-0.1,0.5,0l0.2,0.2
			C173.3,85.3,173.3,85.6,173.1,85.7C173.1,85.7,173.1,85.7,173.1,85.7z"/>
		<path class="st7" d="M175.6,85.3l-0.1,0.1c-0.1,0.1-0.2,0.1-0.3,0.1l0,0v0.7l-1.7,3l0,0c0,0.2-0.2,0.4-0.4,0.4c0,0,0,0,0,0
			c-0.1,0-0.2,0-0.3-0.1l0,0l-1.1,1.1l0.8,0.1l1.2-1.2C174.9,88.3,175.5,86.8,175.6,85.3z"/>
		<path class="st7" d="M173.5,80.8l1.3,2l0.3,1.8l0.4-0.4c-0.2-1.4-0.8-2.7-1.8-3.7l-4.9-4.9l-0.1,0.2l0.4,0.7L173.5,80.8z"/>
		<path class="st7" d="M164,80.5c-0.1-0.1-0.1-0.2-0.1-0.3c0-0.1,0-0.2,0.1-0.3c0,0,0.1-0.1,0.1-0.1l4.2-3.9c-0.1,0-0.2,0-0.3-0.1
			c-0.2-0.2-0.2-0.4,0-0.6l-7.4,7.4c0.1,0.2,0.2,0.4,0.3,0.6L164,80.5z"/>
		<path class="st7" d="M164,80.6L164,80.6L164,80.6l-3,2.7l0.1,0.2L164,80.6z"/>
		<path class="st7" d="M171.6,90.5h0.2l1.1-1.1l-0.1-0.1L171.6,90.5z"/>
		<path class="st7" d="M175,84.8l0.2-0.2l-0.3-1.8l-1.3-2l-4.4-4.3l-0.4-0.7l-0.1,0.1c-0.1,0.1-0.2,0.1-0.3,0.1l0,0l-4.2,3.9
			c0.1-0.1,0.3,0,0.4,0.1l0,0l3.8-3.8l4.9,4.9c2.1,2.1,2.1,5.5,0.1,7.7l0.1,0.1c0.1,0.1,0.1,0.1,0.1,0.2l1.7-3v-0.7
			c-0.1,0-0.2,0-0.3-0.1C174.9,85.2,174.9,85,175,84.8z"/>
		<polygon class="st7" points="164.3,80.3 173.1,89.1 173.3,88.9 164.3,80.3 		"/>
		
			<rect x="168.3" y="78.6" transform="matrix(0.7071 -0.7071 0.7071 0.7071 -10.6161 144.0196)" class="st7" width="0.4" height="12.4"/>
		<path class="st7" d="M173.3,88.9L173.3,88.9L173.3,88.9l-8.7-8.9l-0.2,0.2L173.3,88.9z"/>
		<path class="st7" d="M173.3,88.9l-0.2,0.2l0.1,0.1l-0.3,0.3l0,0c0.1,0.1,0.2,0.1,0.3,0.1c0.2,0,0.4-0.2,0.4-0.4c0,0,0,0,0,0l0,0
			l0,0L173.3,88.9z M173.5,89.1L173.5,89.1z"/>
		<path class="st7" d="M164.3,80.3L164.3,80.3L164,80l0.1-0.1c0,0-0.1,0-0.1,0.1c-0.1,0.1-0.1,0.2-0.1,0.3c0,0.1,0,0.2,0.1,0.3
			L164.3,80.3L164.3,80.3z"/>
		<polygon class="st7" points="164,80.6 164.3,80.3 164.3,80.3 164,80.5 164,80.6 		"/>
		
			<rect x="172.8" y="89.2" transform="matrix(0.7072 -0.707 0.707 0.7072 -12.4659 148.424)" class="st7" width="0.4" height="0.2"/>
		<path class="st7" d="M164.3,80.3l0.2-0.2l0,0c-0.1-0.1-0.3-0.1-0.4-0.1L164,80L164.3,80.3z"/>
		<path class="st7" d="M173.3,88.8L173.3,88.8L173.3,88.8l0.2,0.3l0,0c0-0.1,0-0.2-0.1-0.2L173.3,88.8z"/>
		<path class="st7" d="M172.9,85c-0.1-0.1-0.4-0.1-0.5,0c-0.1,0.1-0.1,0.4,0,0.5l0.2,0.2c0.1,0.1,0.2,0.1,0.3,0.1
			c0.1,0,0.2,0,0.3-0.1c0.2-0.2,0.2-0.4,0-0.6L172.9,85z"/>
		<path class="st7" d="M184.4,78.3c-0.1-0.1-0.1-0.4,0-0.5l0,0l-4.1,4.1c-0.9,0.9-2.1,1.3-3.4,1.3c-0.1,0-0.2,0-0.3,0.1l-0.9,0.9
			c0,0.3,0,0.7,0,1l1.3-1.2c1.4,0,2.8-0.5,3.8-1.5l4.1-4.1l0,0c-0.1,0.1-0.1,0.1-0.2,0.1C184.5,78.4,184.4,78.4,184.4,78.3z"/>
		<path class="st7" d="M175.6,84.2l-0.4,0.4l0.1,0.5v0.4l0,0c0.1,0,0.2,0,0.3-0.1l0.1-0.1C175.6,84.9,175.6,84.6,175.6,84.2z"/>
		<path class="st7" d="M175.2,84.6l-0.2,0.2c-0.2,0.2-0.2,0.4,0,0.6c0.1,0.1,0.2,0.1,0.3,0.1v-0.4L175.2,84.6z"/>
		<path class="st7" d="M180.4,72.6c0.1,0.1,0.1,0.1,0.2,0.1C180.6,72.7,180.5,72.7,180.4,72.6z"/>
		<path class="st7" d="M182.8,72.6c0.2,0.2,0.4,0.6,0.4,0.9c0,0.3-0.1,0.7-0.4,0.9l-0.9,0.9l0,0c-0.2,0.2-0.2,0.4,0,0.6
			c0.1,0.1,0.4,0.2,0.5,0c0,0,0,0,0,0l0,0c0.5-0.5,1.3-0.5,1.9,0c0.5,0.5,0.5,1.3,0,1.9l0,0l0.5,0.5l0,0c0.8-0.8,0.9-2.1,0.1-2.9
			c0,0,0,0-0.1-0.1c-0.3-0.4-0.8-0.6-1.3-0.6c0.2-0.4,0.4-0.8,0.4-1.2c0-0.6-0.2-1.1-0.6-1.5c-0.4-0.4-0.9-0.6-1.5-0.6
			c-0.1,0-0.2,0-0.4,0c-0.1,0.4-0.3,0.8-0.6,1.1C181.5,72.1,182.3,72.1,182.8,72.6z"/>
		<path class="st7" d="M184.4,78.3c0.1,0.1,0.2,0.1,0.3,0.1c0.1,0,0.2,0,0.2-0.1l-0.5-0.5C184.2,78,184.2,78.2,184.4,78.3z"/>
		<path class="st7" d="M178.4,70.3c0,0,0.1-0.1,0.1-0.1C178.5,70.3,178.5,70.3,178.4,70.3z"/>
		<path class="st7" d="M178.3,70.3L178.3,70.3z"/>
		<path class="st7" d="M181,72.6c-0.1,0.1-0.2,0.1-0.3,0.1l0,0C180.8,72.8,180.9,72.7,181,72.6z"/>
		<path class="st7" d="M180.4,70.2c0.5,0.5,0.5,1.3,0,1.9c0.3-0.3,0.7-0.5,1.1-0.6c0.1-0.7-0.1-1.3-0.6-1.8
			c-0.4-0.4-0.9-0.6-1.5-0.6c-0.1,0-0.2,0-0.4,0c-0.1,0.4-0.3,0.8-0.6,1.1C179.1,69.7,179.9,69.7,180.4,70.2z"/>
		<path class="st7" d="M180.4,72.6c0.1,0.1,0.1,0.1,0.2,0.1c0.1,0,0.2,0,0.3-0.1c0.3-0.3,0.5-0.7,0.6-1.1c-0.4,0.1-0.8,0.3-1.1,0.6
			C180.3,72.2,180.3,72.5,180.4,72.6z"/>
		<path class="st7" d="M172.5,71.1L172.5,71.1L172.5,71.1z"/>
		<path class="st7" d="M172.8,71.2L172.8,71.2z"/>
		<path class="st7" d="M172.6,71.2L172.6,71.2z"/>
		<path class="st7" d="M172.3,71C172.3,71,172.3,71,172.3,71C172.3,71,172.3,71,172.3,71z"/>
		<path class="st7" d="M168.6,75.4l0.3,0.3l0.2-0.2c0,0,2.4-2.8-0.7-5.9c-0.5-0.5-0.5-1.3,0-1.8c0.5-0.5,1.3-0.5,1.9,0l0.8,0.8
			c0.6,0.7,1,1.5,1.2,2.4l0,0c0-0.1,0-0.3,0.1-0.4l0.5-0.5c-0.2-0.8-0.7-1.5-1.2-2.1c-0.8-0.8-0.8-0.8-0.8-0.8l0,0
			c-0.4-0.4-0.9-0.6-1.5-0.6c-1.2,0-2.1,1-2.1,2.1c0,0.5,0.2,1.1,0.6,1.5c2.6,2.6,0.8,4.8,0.7,4.8l-0.5,0.5
			C168.2,75.2,168.5,75.2,168.6,75.4C168.6,75.4,168.6,75.4,168.6,75.4z"/>
		<path class="st7" d="M172.8,71.1L172.8,71.1L172.8,71.1z"/>
		<path class="st7" d="M168.1,76c0.1,0.1,0.2,0.1,0.3,0.1l0.4-0.3l0.1,0.1l0.1-0.2l-0.3-0.3c-0.2-0.1-0.4-0.1-0.6,0
			C168,75.6,168,75.9,168.1,76z"/>
		<path class="st7" d="M168.6,76l0.1-0.1l-0.1-0.1l-0.4,0.3l0,0C168.5,76.1,168.6,76.1,168.6,76z"/>
		<path class="st7" d="M178.3,70.3h0.1H178.3z"/>
		<path class="st7" d="M178.3,70.3c-0.1,0-0.2,0-0.3-0.1C178.1,70.3,178.2,70.4,178.3,70.3z"/>
		<path class="st7" d="M176.2,67.3c0.1,0.1,0.2,0.4,0,0.5c0,0,0,0,0,0c0.5-0.5,1.3-0.5,1.9,0c0.5,0.5,0.5,1.3,0,1.9
			c0.3-0.3,0.7-0.5,1.1-0.6c0.1-0.7-0.1-1.3-0.6-1.8c-0.8-0.8-2.1-0.8-2.9,0C175.8,67.1,176,67.1,176.2,67.3
			C176.2,67.3,176.2,67.3,176.2,67.3z"/>
		<path class="st7" d="M178,70.2c0.1,0.1,0.2,0.1,0.3,0.1l0,0h0.1c0,0,0.1-0.1,0.1-0.1c0.3-0.3,0.5-0.7,0.6-1.1
			c-0.4,0.1-0.8,0.3-1.1,0.6C177.9,69.9,177.9,70.1,178,70.2z"/>
		<path class="st7" d="M172.5,71.1L172.5,71.1L172.5,71.1z"/>
		<path class="st7" d="M172.8,71.2L172.8,71.2L172.8,71.2z"/>
		<path class="st7" d="M172.3,70.9C172.3,70.9,172.3,70.9,172.3,70.9L172.3,70.9z"/>
		<path class="st7" d="M172.9,71.1L172.9,71.1l3.2-3.2c-0.1,0.1-0.4,0.1-0.5,0c-0.1-0.1-0.1-0.4,0-0.5l-2.7,2.7
			c0.1,0.2,0.1,0.5,0.2,0.7C173.1,70.9,173,71,172.9,71.1z"/>
		<path class="st7" d="M172.4,71.1L172.4,71.1L172.4,71.1L172.4,71.1z"/>
		<path class="st7" d="M172.7,71.2L172.7,71.2z"/>
		<path class="st7" d="M172.3,70.9L172.3,70.9c0,0.1,0,0.1,0,0.1v0.1h0.1h0.1h0.2h0.1h0.1c0.1-0.1,0.2-0.2,0.1-0.3
			c0-0.2-0.1-0.5-0.2-0.7l-0.5,0.5C172.2,70.6,172.2,70.8,172.3,70.9z"/>
		<path class="st7" d="M175.6,67.8c0.1,0.1,0.4,0.1,0.5,0c0.1-0.1,0.1-0.4,0-0.5c-0.1-0.1-0.4-0.1-0.5,0
			C175.5,67.4,175.5,67.7,175.6,67.8C175.6,67.8,175.6,67.8,175.6,67.8z"/>
		<path class="st7" d="M173.9,62.3c7.4,0,13.4,6,13.4,13.4s-6,13.4-13.4,13.4c-7.4,0-13.4-6-13.4-13.4
			C160.5,68.3,166.5,62.3,173.9,62.3 M173.9,60.8c-8.2,0-14.9,6.7-14.9,14.9s6.7,14.9,14.9,14.9c8.2,0,14.9-6.7,14.9-14.9
			C188.8,67.5,182.1,60.8,173.9,60.8z"/>
	</g>
</g>
</svg>
