<svg xmlns="http://www.w3.org/2000/svg" viewBox="0 0 300 150"><defs><style>.cls-1,.cls-5{fill:none;}.cls-1{stroke:#fff;}.cls-1,.cls-5,.cls-6,.cls-7{stroke-linecap:round;stroke-linejoin:round;}.cls-2,.cls-6{fill:#fff;}.cls-3{fill:#ae8186;}.cls-4{fill:#ffe6c8;}.cls-5,.cls-6,.cls-7{stroke:#ae8186;}.cls-5{stroke-width:3px;}.cls-6{stroke-width:2.4px;}.cls-7{fill:#b1cce0;stroke-width:1.76px;}</style></defs><g id="Layer_19" data-name="Layer 19"><line class="cls-1" x1="157.9" y1="28" x2="106.1" y2="28"/><circle class="cls-2" cx="146" cy="74" r="46"/><path class="cls-3" d="M146,31a43,43,0,1,1-43,43,43,43,0,0,1,43-43m0-3a46,46,0,1,0,46,46,46,46,0,0,0-46-46Z"/><rect class="cls-4" x="131.72" y="55.26" width="33.31" height="46.74" rx="2.53"/><rect class="cls-5" x="127.07" y="48.72" width="37.97" height="53.28" rx="2.89"/><line class="cls-5" x1="132.98" y1="56.6" x2="159.12" y2="56.6"/><line class="cls-5" x1="132.98" y1="64.63" x2="159.12" y2="64.63"/><line class="cls-5" x1="132.98" y1="72.66" x2="159.12" y2="72.66"/><line class="cls-5" x1="132.98" y1="80.69" x2="153.29" y2="80.69"/><line class="cls-5" x1="132.98" y1="88.72" x2="153.29" y2="88.72"/><circle class="cls-6" cx="133.85" cy="55.51" r="14.91"/><circle class="cls-7" cx="133.85" cy="55.51" r="10.54"/><path class="cls-6" d="M128,69.41l-8.52,14.78a2.14,2.14,0,0,1-1.87,1.08A2.21,2.21,0,0,1,116.5,85a2.16,2.16,0,0,1-.79-3l8.52-14.78"/></g></svg>