<svg id="Layer_1" data-name="Layer 1" xmlns="http://www.w3.org/2000/svg" viewBox="0 0 1400.92 126.57"><defs><style>.cls-1,.cls-12,.cls-15,.cls-6,.cls-8{fill:none;}.cls-1,.cls-12,.cls-13,.cls-8,.cls-9{stroke:#ae8186;}.cls-1,.cls-13,.cls-15,.cls-6,.cls-8{stroke-linecap:round;}.cls-1,.cls-13,.cls-15{stroke-linejoin:round;}.cls-1,.cls-12,.cls-13,.cls-15,.cls-6,.cls-8{stroke-width:1.5px;}.cls-2{fill:#eff6fb;}.cls-13,.cls-3,.cls-7,.cls-9{fill:#fff;}.cls-4,.cls-5{fill:#bddbf2;}.cls-4{opacity:0.5;}.cls-15,.cls-6,.cls-7{stroke:#6898b5;}.cls-12,.cls-6,.cls-7,.cls-8,.cls-9{stroke-miterlimit:10;}.cls-10{fill:#ffe6c8;}.cls-11{fill:#f3e586;}.cls-14{fill:#ae8186;}</style></defs><line class="cls-1" x1="997.01" y1="119.75" x2="1029.66" y2="119.75"/><line class="cls-1" x1="985.66" y1="119.75" x2="994.01" y2="119.75"/><rect class="cls-2" width="1400" height="125"/><rect class="cls-3" x="850.92" y="0.42" width="550" height="125"/><polygon class="cls-4" points="959.71 118.91 959.71 102.83 976.39 102.83 976.39 73.17 993.13 73.17 993.13 86.61 1009.32 86.61 1009.32 102.83 1025.89 102.83 1025.89 125.15 1009.32 125.15 1009.15 125.15 993.13 125.15 992.58 125.15 976.45 125.15 976.39 125.15 960.37 125.15 959.71 125.15 932 125.15 932 118.91 959.71 118.91"/><polygon class="cls-4" points="1249.46 112.42 1249.46 96 1266.51 96 1266.51 65.69 1283.62 65.69 1283.62 112.11 1315.89 112.11 1315.89 79.43 1332.99 79.43 1332.99 125.15 1316.46 125.15 1315.89 125.15 1283.62 125.15 1283.04 125.15 1266.56 125.15 1266.51 125.15 1181.99 125.15 1181.99 112.42 1249.46 112.42"/><polygon class="cls-4" points="1085.7 118.91 1085.7 102.83 1102.39 102.83 1102.39 73.17 1119.13 73.17 1119.13 86.61 1135.32 86.61 1135.32 102.83 1151.89 102.83 1151.89 125.15 1135.32 125.15 1135.15 125.15 1119.13 125.15 1118.58 125.15 1102.44 125.15 1102.39 125.15 1086.37 125.15 1085.7 125.15 1058 125.15 1058 118.91 1085.7 118.91"/><polygon class="cls-2" points="881.53 125.15 930.47 62.5 881.98 0.42 770.47 0.42 770.47 125.42 881.53 125.15"/><polygon class="cls-5" points="577.53 112.42 577.53 96 560.48 96 560.48 65.69 543.38 65.69 543.38 112.11 511.11 112.11 511.11 79.43 494 79.43 494 125.15 510.53 125.15 511.11 125.15 543.38 125.15 543.95 125.15 560.43 125.15 560.48 125.15 645 125.15 645 112.42 577.53 112.42"/><polygon class="cls-5" points="741.29 118.91 741.29 102.83 724.6 102.83 724.6 73.17 707.86 73.17 707.86 86.61 691.67 86.61 691.67 102.83 675.1 102.83 675.1 125.15 691.67 125.15 691.84 125.15 707.86 125.15 708.41 125.15 724.54 125.15 724.6 125.15 740.62 125.15 741.29 125.15 768.99 125.15 768.99 118.91 741.29 118.91"/><line class="cls-6" x1="733.31" y1="15.75" x2="700.66" y2="15.75"/><line class="cls-6" x1="744.66" y1="15.75" x2="736.31" y2="15.75"/><line class="cls-6" x1="874.66" y1="35.75" x2="866.31" y2="35.75"/><line class="cls-6" x1="703.31" y1="49.75" x2="670.66" y2="49.75"/><line class="cls-6" x1="714.66" y1="49.75" x2="706.31" y2="49.75"/><line class="cls-6" x1="863.31" y1="35.75" x2="830.66" y2="35.75"/><line class="cls-6" x1="693.31" y1="41.75" x2="660.66" y2="41.75"/><line class="cls-6" x1="883.31" y1="29.75" x2="850.66" y2="29.75"/><line class="cls-6" x1="754.66" y1="7.75" x2="726.31" y2="7.75"/><line class="cls-6" x1="667.01" y1="105.75" x2="699.66" y2="105.75"/><line class="cls-6" x1="690.66" y1="110.75" x2="719.01" y2="110.75"/><line class="cls-6" x1="581.01" y1="102.75" x2="613.66" y2="102.75"/><line class="cls-6" x1="569.66" y1="102.75" x2="578.01" y2="102.75"/><line class="cls-6" x1="529.66" y1="2.75" x2="538.01" y2="2.75"/><line class="cls-6" x1="541.01" y1="2.75" x2="573.66" y2="2.75"/><line class="cls-6" x1="521.01" y1="8.75" x2="553.66" y2="8.75"/><line class="cls-6" x1="579.66" y1="80.75" x2="608.01" y2="80.75"/><line class="cls-6" x1="631.31" y1="26.75" x2="598.66" y2="26.75"/><line class="cls-6" x1="607.66" y1="21.75" x2="579.31" y2="21.75"/><line class="cls-6" x1="629.66" y1="89.75" x2="638.01" y2="89.75"/><line class="cls-6" x1="641.01" y1="89.75" x2="673.66" y2="89.75"/><rect class="cls-7" x="774.18" y="4.21" width="53" height="20" rx="8.84"/><rect class="cls-7" x="592.18" y="65.21" width="53" height="20" rx="8.84"/><rect class="cls-7" x="518.66" y="24.41" width="33" height="20" rx="8.84"/><line class="cls-8" x1="1113.31" y1="15.75" x2="1080.66" y2="15.75"/><line class="cls-8" x1="1124.66" y1="15.75" x2="1116.31" y2="15.75"/><line class="cls-8" x1="1254.66" y1="35.75" x2="1246.31" y2="35.75"/><line class="cls-8" x1="1083.31" y1="29.75" x2="1050.66" y2="29.75"/><line class="cls-8" x1="1094.66" y1="29.75" x2="1086.31" y2="29.75"/><line class="cls-8" x1="1243.31" y1="35.75" x2="1210.66" y2="35.75"/><line class="cls-8" x1="1073.31" y1="41.75" x2="1040.66" y2="41.75"/><line class="cls-8" x1="1263.31" y1="29.75" x2="1230.66" y2="29.75"/><line class="cls-8" x1="1134.66" y1="7.75" x2="1106.31" y2="7.75"/><line class="cls-8" x1="921.01" y1="112.75" x2="953.66" y2="112.75"/><line class="cls-8" x1="909.66" y1="112.75" x2="918.01" y2="112.75"/><line class="cls-8" x1="909.66" y1="2.75" x2="918.01" y2="2.75"/><line class="cls-8" x1="921.01" y1="2.75" x2="953.66" y2="2.75"/><line class="cls-8" x1="901.01" y1="8.75" x2="933.66" y2="8.75"/><line class="cls-8" x1="946.66" y1="48.75" x2="975.01" y2="48.75"/><line class="cls-8" x1="1011.31" y1="26.75" x2="978.66" y2="26.75"/><line class="cls-8" x1="987.66" y1="21.75" x2="959.31" y2="21.75"/><rect class="cls-9" x="1182.5" y="5.35" width="53" height="20" rx="8.84"/><rect class="cls-9" x="985.5" y="12.35" width="53" height="20" rx="8.84"/><rect class="cls-9" x="1228.5" y="85.35" width="53" height="20" rx="8.84"/><polygon class="cls-10" points="1111.55 49.27 1164.6 22.85 1217.65 49.27 1217.65 58.03 1111.55 58.03 1111.55 49.27"/><rect class="cls-11" x="1120.62" y="58.03" width="87.95" height="6.83"/><polygon class="cls-3" points="1128.57 48.79 1164.6 31.11 1200.62 48.79 1128.57 48.79"/><polygon class="cls-1" points="1111.55 49.27 1164.6 22.85 1217.65 49.27 1217.65 57.42 1111.55 57.42 1111.55 49.27"/><polygon class="cls-12" points="1164.6 31.11 1127.59 49.27 1201.61 49.27 1164.6 31.11"/><rect class="cls-13" x="1120.62" y="109.54" width="87.95" height="8.14"/><path class="cls-13" d="M1114.69,117.68h99.81a3.14,3.14,0,0,1,3.14,3.14v5a0,0,0,0,1,0,0h-106.1a0,0,0,0,1,0,0v-5A3.14,3.14,0,0,1,1114.69,117.68Z"/><rect class="cls-1" x="1120.71" y="57" width="87.95" height="8.14" transform="translate(2329.28 122.56) rotate(180)"/><rect class="cls-13" x="1123.93" y="65.56" width="7.44" height="43.98"/><rect class="cls-13" x="1148.56" y="65.56" width="7.44" height="43.98"/><rect class="cls-13" x="1173.19" y="65.56" width="7.44" height="43.98"/><rect class="cls-13" x="1197.83" y="65.56" width="7.44" height="43.98"/><circle class="cls-3" cx="976.6" cy="86.29" r="22.64"/><path class="cls-10" d="M957.59,98.05a22.64,22.64,0,0,0,39.54-21.9s-11.08,21.44-36.06,21.44Z" transform="translate(-0.08 0.42)"/><path class="cls-14" d="M976.68,64.74a21.14,21.14,0,1,1-21.13,21.14,21.16,21.16,0,0,1,21.13-21.14m0-1.5a22.64,22.64,0,1,0,22.64,22.64,22.63,22.63,0,0,0-22.64-22.64Z" transform="translate(-0.08 0.42)"/><ellipse class="cls-10" cx="973.17" cy="67.53" rx="3.51" ry="1.95" transform="translate(11.79 233.89) rotate(-13.76)"/><path class="cls-1" d="M1040.27,80.63h19.63a13.62,13.62,0,0,1,13.62,13.62V105a1.36,1.36,0,0,1-1.36,1.36H1028a1.36,1.36,0,0,1-1.36-1.36V94.25a13.62,13.62,0,0,1,13.62-13.62Z"/><circle class="cls-1" cx="1050.08" cy="64.27" r="10.69"/><path class="cls-1" d="M1066.58,68.1a13.39,13.39,0,0,1-3.26,5.16" transform="translate(-0.08 0.42)"/><path class="cls-1" d="M1053.83,48.44a13.49,13.49,0,0,1,13.5,13.5" transform="translate(-0.08 0.42)"/><line class="cls-1" x1="1048.45" y1="113.85" x2="1072.54" y2="113.85"/><line class="cls-1" x1="1038.13" y1="113.85" x2="1043.29" y2="113.85"/><path class="cls-15" d="M809.54,82.77H852.8a1.36,1.36,0,0,1,1.36,1.36V94.44a13.62,13.62,0,0,1-13.62,13.62H821.8a13.62,13.62,0,0,1-13.62-13.62V84.13a1.36,1.36,0,0,1,1.36-1.36Z" transform="translate(1662.27 191.24) rotate(-180)"/><circle class="cls-15" cx="831.09" cy="67.14" r="10.49"/><path class="cls-15" d="M815.07,70.89a13.2,13.2,0,0,0,3.2,5.06" transform="translate(-0.08 0.42)"/><path class="cls-15" d="M827.58,51.6a13.25,13.25,0,0,0-13.25,13.24" transform="translate(-0.08 0.42)"/><line class="cls-15" x1="832.69" y1="115.78" x2="809.05" y2="115.78"/><line class="cls-15" x1="842.82" y1="115.78" x2="837.75" y2="115.78"/><circle class="cls-3" cx="756.52" cy="86.51" r="23"/><path class="cls-10" d="M737.21,98.47a23,23,0,0,0,40.17-22.25S766.12,98,740.75,98Z" transform="translate(-0.08 0.42)"/><path class="cls-14" d="M756.61,64.6a21.5,21.5,0,1,1-21.5,21.5,21.52,21.52,0,0,1,21.5-21.5m0-1.5a23,23,0,1,0,23,23,23,23,0,0,0-23-23Z" transform="translate(-0.08 0.42)"/><ellipse class="cls-10" cx="754.48" cy="68.9" rx="3.57" ry="1.98" transform="translate(5.19 181.9) rotate(-13.76)"/><rect class="cls-2" x="1332.92" y="0.42" width="68" height="125"/><line class="cls-8" x1="1361.66" y1="50.75" x2="1353.31" y2="50.75"/><line class="cls-8" x1="1350.31" y1="50.75" x2="1317.66" y2="50.75"/><line class="cls-8" x1="1370.31" y1="44.75" x2="1337.66" y2="44.75"/><rect class="cls-9" x="1289.5" y="20.35" width="53" height="20" rx="8.84"/><polygon class="cls-4" points="1400.47 96 1400.47 65.69 1383.37 65.69 1383.37 112.11 1351.1 112.11 1351.1 79.43 1332.99 79.43 1332.99 125.15 1350.53 125.15 1351.1 125.15 1383.37 125.15 1383.94 125.15 1400.42 125.15 1400.47 125.15 1400.47 96"/></svg>