<?xml version="1.0" encoding="utf-8"?>
<!-- Generator: Adobe Illustrator 25.2.1, SVG Export Plug-In . SVG Version: 6.00 Build 0)  -->
<svg version="1.1" id="Layer_1" xmlns="http://www.w3.org/2000/svg" xmlns:xlink="http://www.w3.org/1999/xlink" x="0px"
	y="0px" viewBox="0 0 16 16" style="enable-background:new 0 0 16 16;" xml:space="preserve">
	<style type="text/css">
		.st0 {
			fill: #048EF8;
		}
	</style>
	<path class="st0" d="M8,1c3.9,0,7,3.1,7,7s-3.1,7-7,7s-7-3.1-7-7S4.1,1,8,1 M8,0C3.6,0,0,3.6,0,8s3.6,8,8,8s8-3.6,8-8S12.4,0,8,0
	L8,0z" />
	<g>
		<path class="st0" d="M3.6,5.2h3.8v0.7H4.4v2.2h2.5v0.7H4.4v2.9H3.6V5.2z" />
		<path class="st0" d="M8,8.5c0-2.1,1.3-3.4,3-3.4c0.9,0,1.5,0.4,1.9,0.8l-0.5,0.5c-0.3-0.3-0.8-0.6-1.4-0.6c-1.3,0-2.2,1-2.2,2.6
		c0,1.6,0.8,2.7,2.2,2.7c0.5,0,0.9-0.1,1.2-0.4V9.1h-1.4V8.4H13v2.8c-0.4,0.4-1.1,0.8-2,0.8C9.3,11.9,8,10.6,8,8.5z" />
	</g>
</svg>